  0
SECTION
  2
HEADER
  9
$ACADVER
  1
AC1009
  9
$INSBASE
 10
0.0
 20
0.0
 30
0.0
  9
$EXTMIN
 10
0.0
 20
0.0
 30
0.0
  9
$EXTMAX
 10
207.671071712367393
 20
207.6710717123673078
 30
0.0
  9
$LIMMIN
 10
0.0
 20
0.0
  9
$LIMMAX
 10
207.671071712367393
 20
207.6710717123673078
  9
$ORTHOMODE
 70
     0
  9
$REGENMODE
 70
     1
  9
$FILLMODE
 70
     1
  9
$QTEXTMODE
 70
     0
  9
$MIRRTEXT
 70
     0
  9
$DRAGMODE
 70
     2
  9
$LTSCALE
 40
1.0
  9
$OSMODE
 70
     0
  9
$ATTMODE
 70
     1
  9
$TEXTSIZE
 40
0.2
  9
$TRACEWID
 40
0.05
  9
$TEXTSTYLE
  7
STANDARD
  9
$CLAYER
  8
0
  9
$CELTYPE
  6
BYLAYER
  9
$CECOLOR
 62
   256
  9
$DIMSCALE
 40
1.0
  9
$DIMASZ
 40
0.18
  9
$DIMEXO
 40
0.0625
  9
$DIMDLI
 40
0.38
  9
$DIMRND
 40
0.0
  9
$DIMDLE
 40
0.0
  9
$DIMEXE
 40
0.18
  9
$DIMTP
 40
0.0
  9
$DIMTM
 40
0.0
  9
$DIMTXT
 40
0.18
  9
$DIMCEN
 40
0.09
  9
$DIMTSZ
 40
0.0
  9
$DIMTOL
 70
     0
  9
$DIMLIM
 70
     0
  9
$DIMTIH
 70
     1
  9
$DIMTOH
 70
     1
  9
$DIMSE1
 70
     0
  9
$DIMSE2
 70
     0
  9
$DIMTAD
 70
     0
  9
$DIMZIN
 70
     0
  9
$DIMBLK
  1

  9
$DIMASO
 70
     1
  9
$DIMSHO
 70
     1
  9
$DIMPOST
  1

  9
$DIMAPOST
  1

  9
$DIMALT
 70
     0
  9
$DIMALTD
 70
     2
  9
$DIMALTF
 40
25.3999999999999986
  9
$DIMLFAC
 40
1.0
  9
$DIMTOFL
 70
     0
  9
$DIMTVP
 40
0.0
  9
$DIMTIX
 70
     0
  9
$DIMSOXD
 70
     0
  9
$DIMSAH
 70
     0
  9
$DIMBLK1
  1

  9
$DIMBLK2
  1

  9
$DIMSTYLE
  2
STANDARD
  9
$DIMCLRD
 70
     0
  9
$DIMCLRE
 70
     0
  9
$DIMCLRT
 70
     0
  9
$DIMTFAC
 40
1.0
  9
$DIMGAP
 40
0.09
  9
$LUNITS
 70
     2
  9
$LUPREC
 70
     4
  9
$SKETCHINC
 40
0.1
  9
$FILLETRAD
 40
0.0
  9
$AUNITS
 70
     0
  9
$AUPREC
 70
     0
  9
$MENU
  1
.
  9
$ELEVATION
 40
0.0
  9
$PELEVATION
 40
0.0
  9
$THICKNESS
 40
0.0
  9
$LIMCHECK
 70
     0
  9
$BLIPMODE
 70
     0
  9
$CHAMFERA
 40
0.0
  9
$CHAMFERB
 40
0.0
  9
$SKPOLY
 70
     0
  9
$TDCREATE
 40
2458918.8480555559508502
  9
$TDUPDATE
 40
2458918.8480555559508502
  9
$TDINDWG
 40
0.0
  9
$TDUSRTIMER
 40
0.0
  9
$USRTIMER
 70
     1
  9
$ANGBASE
 50
0.0
  9
$ANGDIR
 70
     0
  9
$PDMODE
 70
     0
  9
$PDSIZE
 40
0.0
  9
$PLINEWID
 40
0.0
  9
$COORDS
 70
     0
  9
$SPLFRAME
 70
     0
  9
$SPLINETYPE
 70
     6
  9
$SPLINESEGS
 70
     8
  9
$ATTDIA
 70
     1
  9
$ATTREQ
 70
     1
  9
$HANDLING
 70
     1
  9
$HANDSEED
  5
213
  9
$SURFTAB1
 70
     6
  9
$SURFTAB2
 70
     6
  9
$SURFTYPE
 70
     6
  9
$SURFU
 70
     6
  9
$SURFV
 70
     6
  9
$UCSNAME
  2

  9
$UCSORG
 10
0.0
 20
0.0
 30
0.0
  9
$UCSXDIR
 10
1.0
 20
0.0
 30
0.0
  9
$UCSYDIR
 10
0.0
 20
1.0
 30
0.0
  9
$PUCSNAME
  2

  9
$PUCSORG
 10
0.0
 20
0.0
 30
0.0
  9
$PUCSXDIR
 10
1.0
 20
0.0
 30
0.0
  9
$PUCSYDIR
 10
0.0
 20
1.0
 30
0.0
  9
$USERI1
 70
     0
  9
$USERI2
 70
     0
  9
$USERI3
 70
     0
  9
$USERI4
 70
     0
  9
$USERI5
 70
     0
  9
$USERR1
 40
0.0
  9
$USERR2
 40
0.0
  9
$USERR3
 40
0.0
  9
$USERR4
 40
0.0
  9
$USERR5
 40
0.0
  9
$WORLDVIEW
 70
     1
  9
$SHADEDGE
 70
     3
  9
$SHADEDIF
 70
    70
  9
$TILEMODE
 70
     1
  9
$MAXACTVP
 70
    64
  9
$PLIMCHECK
 70
     0
  9
$PEXTMIN
 10
0.0
 20
0.0
 30
0.0
  9
$PEXTMAX
 10
207.671071712367393
 20
207.6710717123673078
 30
0.0
  9
$PLIMMIN
 10
0.0
 20
0.0
  9
$PLIMMAX
 10
207.671071712367393
 20
207.6710717123673078
  9
$UNITMODE
 70
     0
  9
$VISRETAIN
 70
     1
  9
$PLINEGEN
 70
     0
  9
$PSLTSCALE
 70
     1
  0
ENDSEC
  0
SECTION
  2
TABLES
  0
TABLE
  2
VPORT
 70
     1
  0
VPORT
  2
*ACTIVE
 70
     0
 10
0.0
 20
0.0
 11
1.0
 21
1.0
 12
78.0999999999999943
 22
78.1000000000000227
 13
0.0
 23
0.0
 14
1.0
 24
1.0
 15
0.0
 25
0.0
 16
0.0
 26
0.0
 36
1.0
 17
0.0
 27
0.0
 37
0.0
 40
207.6710717123673078
 41
1.0
 42
50.0
 43
0.0
 44
0.0
 50
0.0
 51
0.0
 71
     0
 72
   100
 73
     1
 74
     0
 75
     1
 76
     0
 77
     0
 78
     0
  0
ENDTAB
  0
TABLE
  2
LTYPE
 70
    59
  0
LTYPE
  2
CONTINUOUS
 70
     0
  3
Solid line
 72
    65
 73
     0
 40
0.0
  0
LTYPE
  2
BY_STANDARD
 70
     0
  3
By Standard ____________    ____    ____   _
 72
    65
 73
     6
 40
1.2402999999999991
 49
0.6614
 49
-0.0827
 49
0.1654
 49
-0.0827
 49
0.1654
 49
-0.0827
  0
LTYPE
  2
CHAIN
 70
     0
  3
Chain ____ _ ____ _ ____ _ ____ _ ____ _ ____
 72
    65
 73
     4
 40
0.7087
 49
0.4724000000000001
 49
-0.0591
 49
0.1181
 49
-0.0591
  0
LTYPE
  2
DASH_DOT
 70
     0
  3
Dash dot __ . __ . __ . __ . __ . __ . __ . __
 72
    65
 73
     4
 40
0.37
 49
0.24
 49
-0.06
 49
0.01
 49
-0.06
  0
LTYPE
  2
DOUBLE_DASH_DOT
 70
     0
  3
Double-Dash Dot __ __ . __ __ . __ __ . __ _
 72
    65
 73
     6
 40
0.4398
 49
0.24
 49
-0.06
 49
0.0098
 49
-0.06
 49
0.01
 49
-0.06
  0
LTYPE
  2
DASH_TRIPLE_DOT
 70
     0
  3
Dash Triple-Dot _ . . . _ . . . _ . . . _
 72
    65
 73
     8
 40
0.51
 49
0.24
 49
-0.06
 49
0.01
 49
-0.06
 49
0.01
 49
-0.06
 49
0.01
 49
-0.06
  0
LTYPE
  2
DASHED
 70
     0
  3
Dashed __ __ __ __ __ __ __ __ __ __ __ __ __ _
 72
    65
 73
     2
 40
0.2067
 49
0.1654
 49
-0.0413
  0
LTYPE
  2
DASH_DOUBLE_DOT
 70
     0
  3
Dash Double-Dot __ . . __ . . __ . . __ . .
 72
    65
 73
     6
 40
0.4398
 49
0.24
 49
-0.06
 49
0.0098
 49
-0.06
 49
0.01
 49
-0.06
  0
LTYPE
  2
DASHED_SPACE
 70
     0
  3
Dashed Space __ __ __ __ __ __ __ __ __ __ __ _
 72
    65
 73
     2
 40
0.2067
 49
0.1654
 49
-0.0413
  0
LTYPE
  2
DOTTED
 70
     0
  3
Dotted . . . . . . . . . . . . . . . . . . . . 
 72
    65
 73
     2
 40
0.0482
 49
0.0069
 49
-0.0413
  0
LTYPE
  2
DOUBLE_DASH_CHAIN
 70
     0
  3
Double-Dash Chain ______  __  __  ______  __  _
 72
    65
 73
     6
 40
1.2402999999999991
 49
0.6614
 49
-0.0827
 49
0.1654
 49
-0.0827
 49
0.1654
 49
-0.0827
  0
LTYPE
  2
DOUBLE_DASH_DOUBLE_DOT
 70
     0
  3
Double-Dash Double-dot _ _ . . _ _ . . _
 72
    65
 73
     8
 40
0.7400000000000001
 49
0.24
 49
-0.06
 49
0.24
 49
-0.06
 49
0.01
 49
-0.06
 49
0.01
 49
-0.06
  0
LTYPE
  2
DOUBLE_DASH_TRIPLE_DOT
 70
     0
  3
Double Dash Triple Dot __ __ . . . __ __ . .
 72
    65
 73
    10
 40
0.8100000000000001
 49
0.24
 49
-0.06
 49
0.24
 49
-0.06
 49
0.01
 49
-0.06
 49
0.01
 49
-0.06
 49
0.01
 49
-0.06
  0
LTYPE
  2
LONG_DASH_DOTTED
 70
     0
  3
Long Dash Dotted ____ . ____ . ____ . ____ . _
 72
    65
 73
     4
 40
0.3543
 49
0.2362
 49
-0.0295
 49
0.0591
 49
-0.0295
  0
LTYPE
  2
LONG_DASH_DOUBLE_DOT
 70
     0
  3
Long Dash Double Dot ________  .  .  ________  
 72
    65
 73
     6
 40
0.6799999999999999
 49
0.48
 49
-0.06
 49
0.01
 49
-0.06
 49
0.01
 49
-0.06
  0
LTYPE
  2
LONG_DASH_TRIPLE_DOT
 70
     0
  3
Long Dash Triple Dot ____ ... ____ ... ____
 72
    65
 73
     8
 40
0.3689
 49
0.2362
 49
-0.0295
 49
0.0049
 49
-0.0295
 49
0.0049
 49
-0.0295
 49
0.0049
 49
-0.0295
  0
LTYPE
  2
BORDER
 70
     0
  3
Border __ __ . __ __ . __ __ . __ __ . __ __ .
 72
    65
 73
     6
 40
1.75
 49
0.5
 49
-0.25
 49
0.5
 49
-0.25
 49
0.0
 49
-0.25
  0
LTYPE
  2
BORDER2
 70
     0
  3
Border (.5x) __.__.__.__.__.__.__.__.__.__.__.
 72
    65
 73
     6
 40
0.875
 49
0.25
 49
-0.125
 49
0.25
 49
-0.125
 49
0.0
 49
-0.125
  0
LTYPE
  2
BORDERX2
 70
     0
  3
Border (2x) ____  ____  .  ____  ____  .  ___
 72
    65
 73
     6
 40
3.5
 49
1.0
 49
-0.5
 49
1.0
 49
-0.5
 49
0.0
 49
-0.5
  0
LTYPE
  2
CENTER
 70
     0
  3
Center ____ _ ____ _ ____ _ ____ _ ____ _ ____
 72
    65
 73
     4
 40
2.0
 49
1.25
 49
-0.25
 49
0.25
 49
-0.25
  0
LTYPE
  2
CENTER2
 70
     0
  3
Center (.5x) ___ _ ___ _ ___ _ ___ _ ___ _ ___
 72
    65
 73
     4
 40
1.125
 49
0.75
 49
-0.125
 49
0.125
 49
-0.125
  0
LTYPE
  2
CENTERX2
 70
     0
  3
Center (2x) ________  __  ________  __  _____
 72
    65
 73
     4
 40
4.0
 49
2.5
 49
-0.5
 49
0.5
 49
-0.5
  0
LTYPE
  2
DASHDOT2
 70
     0
  3
Dash dot (.5x) _._._._._._._._._._._._._._._.
 72
    65
 73
     4
 40
0.5
 49
0.25
 49
-0.125
 49
0.0
 49
-0.125
  0
LTYPE
  2
DASHDOTX2
 70
     0
  3
Dash dot (2x) ____  .  ____  .  ____  .  ___
 72
    65
 73
     4
 40
2.0
 49
1.0
 49
-0.5
 49
0.0
 49
-0.5
  0
LTYPE
  2
DASHED2
 70
     0
  3
Dashed (.5x) _ _ _ _ _ _ _ _ _ _ _ _ _ _ _ _ _
 72
    65
 73
     2
 40
0.375
 49
0.25
 49
-0.125
  0
LTYPE
  2
DASHEDX2
 70
     0
  3
Dashed (2x) ____  ____  ____  ____  ____  ___
 72
    65
 73
     2
 40
1.5
 49
1.0
 49
-0.5
  0
LTYPE
  2
DIVIDE
 70
     0
  3
Divide ____ . . ____ . . ____ . . ____ . . ____
 72
    65
 73
     6
 40
1.25
 49
0.5
 49
-0.25
 49
0.0
 49
-0.25
 49
0.0
 49
-0.25
  0
LTYPE
  2
DIVIDE2
 70
     0
  3
Divide (.5x) __..__..__..__..__..__..__..__.._
 72
    65
 73
     6
 40
0.625
 49
0.25
 49
-0.125
 49
0.0
 49
-0.125
 49
0.0
 49
-0.125
  0
LTYPE
  2
DIVIDEX2
 70
     0
  3
Divide (2x) ________  .  .  ________  .  .  _
 72
    65
 73
     6
 40
2.5
 49
1.0
 49
-0.5
 49
0.0
 49
-0.5
 49
0.0
 49
-0.5
  0
LTYPE
  2
DOT
 70
     0
  3
Dot . . . . . . . . . . . . . . . . . . . . . .
 72
    65
 73
     2
 40
0.25
 49
0.0
 49
-0.25
  0
LTYPE
  2
DOT2
 70
     0
  3
Dot (.5x) .....................................
 72
    65
 73
     2
 40
0.125
 49
0.0
 49
-0.125
  0
LTYPE
  2
DOTX2
 70
     0
  3
Dot (2x) .  .  .  .  .  .  .  .  .  .  .  .  . 
 72
    65
 73
     2
 40
0.5
 49
0.0
 49
-0.5
  0
LTYPE
  2
HIDDEN
 70
     0
  3
Hidden __ __ __ __ __ __ __ __ __ __ __ __ __ _
 72
    65
 73
     2
 40
0.375
 49
0.25
 49
-0.125
  0
LTYPE
  2
HIDDEN2
 70
     0
  3
Hidden (.5x) _ _ _ _ _ _ _ _ _ _ _ _ _ _ _ _ _
 72
    65
 73
     2
 40
0.1875
 49
0.125
 49
-0.0625
  0
LTYPE
  2
HIDDENX2
 70
     0
  3
Hidden (2x) ____ ____ ____ ____ ____ ____ ____
 72
    65
 73
     2
 40
0.75
 49
0.5
 49
-0.25
  0
LTYPE
  2
PHANTOM
 70
     0
  3
Phantom ______  __  __  ______  __  __  ______
 72
    65
 73
     6
 40
2.5
 49
1.25
 49
-0.25
 49
0.25
 49
-0.25
 49
0.25
 49
-0.25
  0
LTYPE
  2
PHANTOM2
 70
     0
  3
Phantom (.5x) ___ _ _ ___ _ _ ___ _ _ ___ _ _
 72
    65
 73
     6
 40
1.25
 49
0.625
 49
-0.125
 49
0.125
 49
-0.125
 49
0.125
 49
-0.125
  0
LTYPE
  2
PHANTOMX2
 70
     0
  3
Phantom (2x) ____________    ____    ____   _
 72
    65
 73
     6
 40
5.0
 49
2.5
 49
-0.5
 49
0.5
 49
-0.5
 49
0.5
 49
-0.5
  0
LTYPE
  2
ACAD_ISO02W100
 70
     0
  3
ISO dash __ __ __ __ __ __ __ __ __ __ __ __ __
 72
    65
 73
     2
 40
0.59
 49
0.47
 49
-0.12
  0
LTYPE
  2
ACAD_ISO03W100
 70
     0
  3
ISO dash space __    __    __    __    __    __
 72
    65
 73
     2
 40
1.179999999999999
 49
0.47
 49
-0.71
  0
LTYPE
  2
ACAD_ISO04W100
 70
     0
  3
ISO long-dash dot ____ . ____ . ____ . ____ . _
 72
    65
 73
     4
 40
1.179999999999999
 49
0.9399999999999998
 49
-0.12
 49
0.0
 49
-0.12
  0
LTYPE
  2
ACAD_ISO05W100
 70
     0
  3
ISO long-dash double-dot ____ .. ____ .. ____ .
 72
    65
 73
     6
 40
1.2999999999999989
 49
0.9399999999999998
 49
-0.12
 49
0.0
 49
-0.12
 49
0.0
 49
-0.12
  0
LTYPE
  2
ACAD_ISO06W100
 70
     0
  3
ISO long-dash triple-dot ____ ... ____ ... ____
 72
    65
 73
     8
 40
1.419999999999999
 49
0.9399999999999998
 49
-0.12
 49
0.0
 49
-0.12
 49
0.0
 49
-0.12
 49
0.0
 49
-0.12
  0
LTYPE
  2
ACAD_ISO07W100
 70
     0
  3
ISO dot . . . . . . . . . . . . . . . . . . . .
 72
    65
 73
     2
 40
0.12
 49
0.0
 49
-0.12
  0
LTYPE
  2
ACAD_ISO08W100
 70
     0
  3
ISO long-dash short-dash ____ __ ____ __ ____ _
 72
    65
 73
     4
 40
0.95
 49
0.47
 49
-0.12
 49
0.24
 49
-0.12
  0
LTYPE
  2
ACAD_ISO09W100
 70
     0
  3
ISO long-dash double-short-dash ____ __ __ ____
 72
    65
 73
     6
 40
1.3100000000000001
 49
0.47
 49
-0.12
 49
0.24
 49
-0.12
 49
0.24
 49
-0.12
  0
LTYPE
  2
ACAD_ISO10W100
 70
     0
  3
ISO dash dot __ . __ . __ . __ . __ . __ . __ .
 72
    65
 73
     4
 40
0.71
 49
0.47
 49
-0.12
 49
0.0
 49
-0.12
  0
LTYPE
  2
ACAD_ISO11W100
 70
     0
  3
ISO double-dash dot __ __ . __ __ . __ __ . __ 
 72
    65
 73
     6
 40
1.2999999999999989
 49
0.47
 49
-0.12
 49
0.47
 49
-0.12
 49
0.0
 49
-0.12
  0
LTYPE
  2
ACAD_ISO12W100
 70
     0
  3
ISO dash double-dot __ . . __ . . __ . . __ . .
 72
    65
 73
     6
 40
0.8299999999999998
 49
0.47
 49
-0.12
 49
0.0
 49
-0.12
 49
0.0
 49
-0.12
  0
LTYPE
  2
ACAD_ISO13W100
 70
     0
  3
ISO double-dash double-dot __ __ . . __ __ . . 
 72
    65
 73
     8
 40
1.419999999999999
 49
0.47
 49
-0.12
 49
0.47
 49
-0.12
 49
0.0
 49
-0.12
 49
0.0
 49
-0.12
  0
LTYPE
  2
ACAD_ISO14W100
 70
     0
  3
ISO dash triple-dot __ . . . __ . . . __ . . . 
 72
    65
 73
     8
 40
0.95
 49
0.47
 49
-0.12
 49
0.0
 49
-0.12
 49
0.0
 49
-0.12
 49
0.0
 49
-0.12
  0
LTYPE
  2
ACAD_ISO15W100
 70
     0
  3
ISO double-dash triple-dot __ __ . . . __ __ . 
 72
    65
 73
    10
 40
1.5399999999999989
 49
0.47
 49
-0.12
 49
0.47
 49
-0.12
 49
0.0
 49
-0.12
 49
0.0
 49
-0.12
 49
0.0
 49
-0.12
  0
LTYPE
  2
FENCELINE1
 70
     0
  3
Fenceline circle ----0-----0----0-----0----0---
 72
    65
 73
     4
 40
1.45
 49
0.25
 49
-0.1
 49
-0.1
 49
1.0
  0
LTYPE
  2
FENCELINE2
 70
     0
  3
Fenceline square ----[]-----[]----[]-----[]----
 72
    65
 73
     4
 40
1.45
 49
0.25
 49
-0.1
 49
-0.1
 49
1.0
  0
LTYPE
  2
TRACKS
 70
     0
  3
Tracks -|-|-|-|-|-|-|-|-|-|-|-|-|-|-|-|-|-|-|-|
 72
    65
 73
     2
 40
0.3
 49
0.15
 49
0.15
  0
LTYPE
  2
BATTING
 70
     0
  3
Batting SSSSSSSSSSSSSSSSSSSSSSSSSSSSSSSSSSSSSSS
 72
    65
 73
     4
 40
0.4001000000000001
 49
0.0001
 49
-0.1
 49
-0.2
 49
-0.1
  0
LTYPE
  2
HOT_WATER_SUPPLY
 70
     0
  3
Hot water supply ---- HW ---- HW ---- HW ----
 72
    65
 73
     3
 40
0.9
 49
0.5
 49
-0.2
 49
-0.2
  0
LTYPE
  2
GAS_LINE
 70
     0
  3
Gas line ----GAS----GAS----GAS----GAS----GAS---
 72
    65
 73
     3
 40
0.95
 49
0.5
 49
-0.2
 49
-0.25
  0
LTYPE
  2
ZIGZAG
 70
     0
  3
Zig zag /\/\/\/\/\/\/\/\/\/\/\/\/\/\/\/\/\/\/\/
 72
    65
 73
     4
 40
0.8001000000000001
 49
0.0001
 49
-0.2
 49
-0.4
 49
-0.2
  0
ENDTAB
  0
TABLE
  2
LAYER
 70
     1
  0
LAYER
  2
0
 70
     0
 62
     7
  6
CONTINUOUS
  0
ENDTAB
  0
TABLE
  2
STYLE
 70
     8
  0
STYLE
  2
STANDARD
 70
     0
 40
0.0
 41
1.0
 50
0.0
 71
     0
 42
0.2
  3
txt
  4

  0
STYLE
  2
ANNOTATIVE
 70
     0
 40
0.0
 41
1.0
 50
0.0
 71
     0
 42
0.2
  3
txt
  4

  0
STYLE
  2

 70
     1
 40
0.0
 41
1.0
 50
0.0
 71
     0
 42
0.2
  3
ltypeshp.shx
  4

  0
STYLE
  2
ANNOTATION_TEXT__ANSI_
 70
     0
 40
0.0
 41
1.0
 50
0.0
 71
     0
 42
0.2
  3
txt.shx
  4
bigfont.shx
  0
STYLE
  2
ANNOTATION_TEXT__DIN_
 70
     0
 40
0.0
 41
1.0
 50
0.0
 71
     0
 42
0.2
  3
txt.shx
  4
bigfont.shx
  0
STYLE
  2
ANNOTATION_TEXT__ISO_
 70
     0
 40
0.0
 41
1.0
 50
0.0
 71
     0
 42
0.2
  3
txt.shx
  4
bigfont.shx
  0
STYLE
  2
DEFAULT-ANSI
 70
     0
 40
0.0
 41
1.0
 50
0.0
 71
     0
 42
0.2
  3
txt.shx
  4
bigfont.shx
  0
STYLE
  2
DEFAULT-ISO
 70
     0
 40
0.0
 41
1.0
 50
0.0
 71
     0
 42
0.2
  3
txt.shx
  4
bigfont.shx
  0
ENDTAB
  0
TABLE
  2
VIEW
 70
     0
  0
ENDTAB
  0
TABLE
  2
UCS
 70
     0
  0
ENDTAB
  0
TABLE
  2
APPID
 70
     3
  0
APPID
  2
ACAD
 70
     0
  0
APPID
  2
ACADANNOTATIVE
 70
     0
  0
APPID
  2
ACAD_MLEADERVER
 70
     0
  0
ENDTAB
  0
TABLE
  2
DIMSTYLE
 70
     2
  0
DIMSTYLE
  2
STANDARD
 70
     0
  3

  4

  5

  6

  7

 40
1.0
 41
0.18
 42
0.0625
 43
0.38
 44
0.18
 45
0.0
 46
0.0
 47
0.0
 48
0.0
140
0.18
141
0.09
142
0.0
143
25.3999999999999986
144
1.0
145
0.0
146
1.0
147
0.09
 71
     0
 72
     0
 73
     1
 74
     1
 75
     0
 76
     0
 77
     0
 78
     0
170
     0
171
     2
172
     0
173
     0
174
     0
175
     0
176
     0
177
     0
178
     0
  0
DIMSTYLE
  2
ANNOTATIVE
 70
     0
  3

  4

  5

  6

  7

 40
1.0
 41
0.18
 42
0.0625
 43
0.38
 44
0.18
 45
0.0
 46
0.0
 47
0.0
 48
0.0
140
0.18
141
0.09
142
0.0
143
25.3999999999999986
144
1.0
145
0.0
146
1.0
147
0.09
 71
     0
 72
     0
 73
     1
 74
     1
 75
     0
 76
     0
 77
     0
 78
     0
170
     0
171
     2
172
     0
173
     0
174
     0
175
     0
176
     0
177
     0
178
     0
  0
ENDTAB
  0
ENDSEC
  0
SECTION
  2
BLOCKS
  0
BLOCK
  8
0
  2
$MODEL_SPACE
 70
     0
 10
0.0
 20
0.0
 30
0.0
  3
$MODEL_SPACE
  1

  0
ENDBLK
  5
72
  8
0
  0
BLOCK
 67
     1
  8
0
  2
$PAPER_SPACE
 70
     0
 10
0.0
 20
0.0
 30
0.0
  3
$PAPER_SPACE
  1

  0
ENDBLK
  5
6E
 67
     1
  8
0
  0
ENDSEC
  0
SECTION
  2
ENTITIES
  0
POLYLINE
  5
BB
  8
0
 66
     1
 10
0.0
 20
0.0
 30
0.0
 70
     1
  0
VERTEX
  5
BC
  8
0
 10
128.2123657104274059
 20
75.5999999999999943
 30
0.0
  0
VERTEX
  5
BD
  8
0
 10
126.0999999999998948
 20
65.5999999999999943
 30
0.0
  0
VERTEX
  5
BF
  8
0
 10
126.0999999999998948
 20
50.0999999999999801
 30
0.0
 42
-0.4142135623730951
  0
VERTEX
  5
C0
  8
0
 10
106.0999999999998948
 20
30.0999999999999801
 30
0.0
  0
VERTEX
  5
C1
  8
0
 10
50.0999999999999375
 20
30.0999999999999801
 30
0.0
 42
-0.4142135623730955
  0
VERTEX
  5
C2
  8
0
 10
30.099999999999941
 20
50.1000000000000085
 30
0.0
  0
VERTEX
  5
C3
  8
0
 10
30.0999999999999517
 20
106.0999999999999943
 30
0.0
 42
-0.4142135623730951
  0
VERTEX
  5
C4
  8
0
 10
50.0999999999999091
 20
126.0999999999999943
 30
0.0
  0
VERTEX
  5
C5
  8
0
 10
106.0999999999998948
 20
126.0999999999999943
 30
0.0
 42
-0.4142135623730953
  0
VERTEX
  5
C6
  8
0
 10
126.0999999999998948
 20
106.0999999999998948
 30
0.0
  0
VERTEX
  5
C7
  8
0
 10
126.0999999999998948
 20
90.5999999999999943
 30
0.0
  0
VERTEX
  5
C8
  8
0
 10
128.2123657104274059
 20
80.5999999999999943
 30
0.0
  0
SEQEND
  5
BE
  8
0
  0
POLYLINE
  5
CA
  8
0
 66
     1
 10
0.0
 20
0.0
 30
0.0
 70
     1
  0
VERTEX
  5
CB
  8
0
 10
134.0999999999999091
 20
76.8499999999999943
 30
0.0
  0
VERTEX
  5
CC
  8
0
 10
144.6999999999997897
 20
76.8499999999999943
 30
0.0
  0
VERTEX
  5
CE
  8
0
 10
144.6999999999997897
 20
51.8663669963174101
 30
0.0
  0
VERTEX
  5
CF
  8
0
 10
130.0999999999999091
 20
57.9138850069645628
 30
0.0
  0
SEQEND
  5
CD
  8
0
  0
POLYLINE
  5
D0
  8
0
 66
     1
 10
0.0
 20
0.0
 30
0.0
 70
     1
  0
VERTEX
  5
D1
  8
0
 10
158.8249999999999034
 20
3.624999999999984
 30
0.0
  0
VERTEX
  5
D2
  8
0
 10
158.8249999999999034
 20
-2.6250000000000151
 30
0.0
  0
VERTEX
  5
D4
  8
0
 10
152.5749999999999034
 20
-2.6250000000000142
 30
0.0
  0
VERTEX
  5
D5
  8
0
 10
152.5749999999999034
 20
3.624999999999984
 30
0.0
  0
SEQEND
  5
D3
  8
0
  0
POLYLINE
  5
D6
  8
0
 66
     1
 10
0.0
 20
0.0
 30
0.0
 70
     1
  0
VERTEX
  5
D7
  8
0
 10
3.6250000000000462
 20
158.8249999999999886
 30
0.0
  0
VERTEX
  5
D8
  8
0
 10
3.6250000000000449
 20
152.5749999999999886
 30
0.0
  0
VERTEX
  5
DA
  8
0
 10
-2.624999999999952
 20
152.5749999999999886
 30
0.0
  0
VERTEX
  5
DB
  8
0
 10
-2.624999999999952
 20
158.8249999999999886
 30
0.0
  0
SEQEND
  5
D9
  8
0
  0
POLYLINE
  5
DC
  8
0
 66
     1
 10
0.0
 20
0.0
 30
0.0
 70
     1
  0
VERTEX
  5
DD
  8
0
 10
3.6250000000000022
 20
3.6250000000000009
 30
0.0
  0
VERTEX
  5
DE
  8
0
 10
3.6250000000000031
 20
-2.6249999999999978
 30
0.0
  0
VERTEX
  5
E0
  8
0
 10
-2.624999999999996
 20
-2.625
 30
0.0
  0
VERTEX
  5
E1
  8
0
 10
-2.6249999999999969
 20
3.6249999999999991
 30
0.0
  0
SEQEND
  5
DF
  8
0
  0
POLYLINE
  5
E2
  8
0
 66
     1
 10
0.0
 20
0.0
 30
0.0
 70
     1
  0
VERTEX
  5
E3
  8
0
 10
152.5749999999999034
 20
152.5749999999999886
 30
0.0
  0
VERTEX
  5
E4
  8
0
 10
152.5749999999999034
 20
158.8249999999999886
 30
0.0
  0
VERTEX
  5
E6
  8
0
 10
158.8249999999999034
 20
158.8249999999999886
 30
0.0
  0
VERTEX
  5
E7
  8
0
 10
158.8249999999999034
 20
152.5749999999999886
 30
0.0
  0
SEQEND
  5
E5
  8
0
  0
POLYLINE
  5
E8
  8
0
 66
     1
 10
0.0
 20
0.0
 30
0.0
 70
     1
  0
VERTEX
  5
E9
  8
0
 10
123.1390665786683059
 20
142.9514614381533022
 30
0.0
 42
0.0977897207768098
  0
VERTEX
  5
EA
  8
0
 10
107.8523687280792984
 20
146.6621646838632103
 30
0.0
  0
VERTEX
  5
EC
  8
0
 10
112.0101762528907017
 20
156.6999999999999886
 30
0.0
  0
VERTEX
  5
ED
  8
0
 10
132.1999999999997897
 20
156.6999999999999886
 30
0.0
 42
0.2137435961458278
  0
VERTEX
  5
EE
  8
0
 10
125.2631738421492003
 20
144.185629005132796
 30
0.0
 42
-0.5202598571457125
  0
SEQEND
  5
EB
  8
0
  0
POLYLINE
  5
EF
  8
0
 66
     1
 10
0.0
 20
0.0
 30
0.0
 70
     1
  0
VERTEX
  5
F0
  8
0
 10
0.0000000000000025
 20
-13.5000000000000107
 30
0.0
  0
VERTEX
  5
F1
  8
0
 10
156.1999999999999886
 20
-13.4999999999999396
 30
0.0
 42
0.4142135623730951
  0
VERTEX
  5
F3
  8
0
 10
169.6999999999999034
 20
0.0000000000000711
 30
0.0
  0
VERTEX
  5
F4
  8
0
 10
169.6999999999999034
 20
156.1999999999999886
 30
0.0
 42
0.4142135623730951
  0
VERTEX
  5
F5
  8
0
 10
156.1999999999999034
 20
169.6999999999997897
 30
0.0
  0
VERTEX
  5
F6
  8
0
 10
0.0
 20
169.6999999999999886
 30
0.0
 42
0.4142135623730951
  0
VERTEX
  5
F7
  8
0
 10
-13.4999999999999396
 20
156.1999999999999886
 30
0.0
  0
VERTEX
  5
F8
  8
0
 10
-13.5
 20
0.0
 30
0.0
 42
0.4142135623730951
  0
SEQEND
  5
F2
  8
0
  0
POLYLINE
  5
F9
  8
0
 66
     1
 10
0.0
 20
0.0
 30
0.0
 70
     1
  0
VERTEX
  5
FA
  8
0
 10
156.6999999999999886
 20
76.8500000000000085
 30
0.0
  0
VERTEX
  5
FB
  8
0
 10
156.6999999999999886
 20
46.8958042478402035
 30
0.0
  0
VERTEX
  5
FD
  8
0
 10
146.6999999999997897
 20
51.0379398715712114
 30
0.0
  0
VERTEX
  5
FE
  8
0
 10
146.6999999999997897
 20
76.8499999999999943
 30
0.0
  0
SEQEND
  5
FC
  8
0
  0
POLYLINE
  5
FF
  8
0
 66
     1
 10
0.0
 20
0.0
 30
0.0
 70
     1
  0
VERTEX
  5
100
  8
0
 10
156.6999999999999886
 20
79.3499999999999943
 30
0.0
  0
VERTEX
  5
101
  8
0
 10
146.6999999999997897
 20
79.3499999999999943
 30
0.0
  0
VERTEX
  5
103
  8
0
 10
146.6999999999997897
 20
105.1620601284287062
 30
0.0
  0
VERTEX
  5
104
  8
0
 10
156.6999999999999886
 20
109.3041957521596999
 30
0.0
  0
SEQEND
  5
102
  8
0
  0
POLYLINE
  5
105
  8
0
 66
     1
 10
0.0
 20
0.0
 30
0.0
 70
     1
  0
VERTEX
  5
106
  8
0
 10
109.3041957521597993
 20
156.6999999999999886
 30
0.0
  0
VERTEX
  5
107
  8
0
 10
105.1620601284288057
 20
146.6999999999999034
 30
0.0
  0
VERTEX
  5
109
  8
0
 10
79.3499999999999943
 20
146.6999999999999034
 30
0.0
  0
VERTEX
  5
10A
  8
0
 10
79.3500000000000085
 20
156.6999999999999886
 30
0.0
  0
SEQEND
  5
108
  8
0
  0
POLYLINE
  5
10B
  8
0
 66
     1
 10
0.0
 20
0.0
 30
0.0
 70
     1
  0
VERTEX
  5
10C
  8
0
 10
76.8500000000000085
 20
156.6999999999999886
 30
0.0
  0
VERTEX
  5
10D
  8
0
 10
76.8500000000000085
 20
146.6999999999999034
 30
0.0
  0
VERTEX
  5
10F
  8
0
 10
51.0379398715712114
 20
146.6999999999999034
 30
0.0
  0
VERTEX
  5
110
  8
0
 10
46.8958042478402533
 20
156.6999999999999886
 30
0.0
  0
SEQEND
  5
10E
  8
0
  0
POLYLINE
  5
111
  8
0
 66
     1
 10
0.0
 20
0.0
 30
0.0
 70
     1
  0
VERTEX
  5
112
  8
0
 10
44.1898237471092585
 20
156.6999999999999886
 30
0.0
  0
VERTEX
  5
113
  8
0
 10
48.3476312719206973
 20
146.6621646838632955
 30
0.0
 42
0.1797569221917462
  0
VERTEX
  5
115
  8
0
 10
22.2889579669092406
 20
135.6788089860571915
 30
0.0
  0
VERTEX
  5
116
  8
0
 10
6.2693962381879267
 20
151.698370714778406
 30
0.0
 42
-0.1827076297318548
  0
VERTEX
  5
117
  8
0
 10
19.5
 20
156.6999999999999886
 30
0.0
  0
SEQEND
  5
114
  8
0
  0
POLYLINE
  5
118
  8
0
 66
     1
 10
0.0
 20
0.0
 30
0.0
 70
     1
  0
VERTEX
  5
119
  8
0
 10
4.5016292852215498
 20
149.9306037618121081
 30
0.0
  0
VERTEX
  5
11A
  8
0
 10
20.5211910139428504
 20
133.9110420330908084
 30
0.0
 42
0.1797569221917461
  0
VERTEX
  5
11C
  8
0
 10
9.5378353161366825
 20
107.8523687280793979
 30
0.0
  0
VERTEX
  5
11D
  8
0
 10
-0.5000000000000027
 20
112.0101762528908012
 30
0.0
  0
VERTEX
  5
11E
  8
0
 10
-0.5000000000000006
 20
136.6999999999999886
 30
0.0
 42
-0.1827076297318551
  0
SEQEND
  5
11B
  8
0
  0
POLYLINE
  5
11F
  8
0
 66
     1
 10
0.0
 20
0.0
 30
0.0
 70
     1
  0
VERTEX
  5
120
  8
0
 10
-0.5000000000000027
 20
109.3041957521597993
 30
0.0
  0
VERTEX
  5
121
  8
0
 10
9.5000000000000107
 20
105.1620601284288057
 30
0.0
  0
VERTEX
  5
123
  8
0
 10
9.5000000000000071
 20
79.3500000000000369
 30
0.0
  0
VERTEX
  5
124
  8
0
 10
-0.4999999999999983
 20
79.3500000000000512
 30
0.0
  0
SEQEND
  5
122
  8
0
  0
POLYLINE
  5
125
  8
0
 66
     1
 10
0.0
 20
0.0
 30
0.0
 70
     1
  0
VERTEX
  5
126
  8
0
 10
4.5016292852215196
 20
6.2693962381879693
 30
0.0
 42
-0.1827076297318542
  0
VERTEX
  5
127
  8
0
 10
-0.4999999999999983
 20
19.5000000000000213
 30
0.0
  0
VERTEX
  5
129
  8
0
 10
-0.4999999999999983
 20
44.189823747109287
 30
0.0
  0
VERTEX
  5
12A
  8
0
 10
9.5378353161366736
 20
48.3476312719207186
 30
0.0
 42
0.1797569221917461
  0
VERTEX
  5
12B
  8
0
 10
20.5211910139427793
 20
22.288957966909269
 30
0.0
  0
SEQEND
  5
128
  8
0
  0
POLYLINE
  5
12C
  8
0
 66
     1
 10
0.0
 20
0.0
 30
0.0
 70
     1
  0
VERTEX
  5
12D
  8
0
 10
149.9306037618119944
 20
4.501629285221564
 30
0.0
 42
-0.1827076297318542
  0
VERTEX
  5
12E
  8
0
 10
136.6999999999999886
 20
-0.4999999999999539
 30
0.0
  0
VERTEX
  5
130
  8
0
 10
112.0101762528907017
 20
-0.4999999999999583
 30
0.0
  0
VERTEX
  5
131
  8
0
 10
107.8523687280792984
 20
9.5378353161367357
 30
0.0
 42
0.1797569221917461
  0
VERTEX
  5
132
  8
0
 10
133.9110420330906948
 20
20.5211910139429001
 30
0.0
  0
SEQEND
  5
12F
  8
0
  0
POLYLINE
  5
133
  8
0
 66
     1
 10
0.0
 20
0.0
 30
0.0
 70
     1
  0
VERTEX
  5
134
  8
0
 10
151.698370714778406
 20
6.2693962381879302
 30
0.0
  0
VERTEX
  5
135
  8
0
 10
135.6788089860569926
 20
22.2889579669092512
 30
0.0
 42
0.1797569221917461
  0
VERTEX
  5
137
  8
0
 10
146.6621646838632103
 20
48.3476312719207186
 30
0.0
  0
VERTEX
  5
138
  8
0
 10
156.6999999999999886
 20
44.189823747109223
 30
0.0
  0
VERTEX
  5
139
  8
0
 10
156.6999999999999886
 20
19.5000000000000497
 30
0.0
 42
-0.1827076297318555
  0
SEQEND
  5
136
  8
0
  0
POLYLINE
  5
13A
  8
0
 66
     1
 10
0.0
 20
0.0
 30
0.0
 70
     1
  0
VERTEX
  5
13B
  8
0
 10
6.2693962381878867
 20
4.5016292852215969
 30
0.0
  0
VERTEX
  5
13C
  8
0
 10
22.2889579669091802
 20
20.5211910139428788
 30
0.0
 42
0.1797569221917461
  0
VERTEX
  5
13E
  8
0
 10
48.3476312719206121
 20
9.5378353161367269
 30
0.0
  0
VERTEX
  5
13F
  8
0
 10
44.1898237471091733
 20
-0.4999999999999672
 30
0.0
  0
VERTEX
  5
140
  8
0
 10
19.5000000000000107
 20
-0.4999999999999761
 30
0.0
 42
-0.1827076297318553
  0
SEQEND
  5
13D
  8
0
  0
POLYLINE
  5
141
  8
0
 66
     1
 10
0.0
 20
0.0
 30
0.0
 70
     1
  0
VERTEX
  5
142
  8
0
 10
46.8958042478401822
 20
-0.4999999999999716
 30
0.0
  0
VERTEX
  5
143
  8
0
 10
51.0379398715711403
 20
9.5000000000000622
 30
0.0
  0
VERTEX
  5
145
  8
0
 10
76.8499999999999233
 20
9.5000000000000622
 30
0.0
  0
VERTEX
  5
146
  8
0
 10
76.8499999999999375
 20
-0.4999999999999672
 30
0.0
  0
SEQEND
  5
144
  8
0
  0
POLYLINE
  5
147
  8
0
 66
     1
 10
0.0
 20
0.0
 30
0.0
 70
     1
  0
VERTEX
  5
148
  8
0
 10
79.3499999999999517
 20
-0.4999999999999627
 30
0.0
  0
VERTEX
  5
149
  8
0
 10
79.3499999999999517
 20
9.5000000000000622
 30
0.0
  0
VERTEX
  5
14B
  8
0
 10
105.1620601284287062
 20
9.5000000000000622
 30
0.0
  0
VERTEX
  5
14C
  8
0
 10
109.3041957521596999
 20
-0.4999999999999583
 30
0.0
  0
SEQEND
  5
14A
  8
0
  0
POLYLINE
  5
14D
  8
0
 66
     1
 10
0.0
 20
0.0
 30
0.0
 70
     1
  0
VERTEX
  5
14E
  8
0
 10
130.0999999999999091
 20
98.2861149930354117
 30
0.0
  0
VERTEX
  5
14F
  8
0
 10
144.6999999999997897
 20
104.3336330036824933
 30
0.0
  0
VERTEX
  5
151
  8
0
 10
144.6999999999997897
 20
79.3499999999999943
 30
0.0
  0
VERTEX
  5
152
  8
0
 10
134.0999999999999091
 20
79.3499999999999943
 30
0.0
  0
SEQEND
  5
150
  8
0
  0
POLYLINE
  5
153
  8
0
 66
     1
 10
0.0
 20
0.0
 30
0.0
 70
     1
  0
VERTEX
  5
154
  8
0
 10
79.3499999999999943
 20
144.6999999999999034
 30
0.0
  0
VERTEX
  5
155
  8
0
 10
104.333633003682607
 20
144.6999999999999034
 30
0.0
  0
VERTEX
  5
157
  8
0
 10
98.2861149930354543
 20
130.0999999999999091
 30
0.0
  0
VERTEX
  5
158
  8
0
 10
79.3499999999999943
 20
130.0999999999999943
 30
0.0
  0
SEQEND
  5
156
  8
0
  0
POLYLINE
  5
159
  8
0
 66
     1
 10
0.0
 20
0.0
 30
0.0
 70
     1
  0
VERTEX
  5
15A
  8
0
 10
51.8663669963174101
 20
144.6999999999999034
 30
0.0
  0
VERTEX
  5
15B
  8
0
 10
76.8500000000000085
 20
144.6999999999999034
 30
0.0
  0
VERTEX
  5
15D
  8
0
 10
76.8500000000000085
 20
130.0999999999999943
 30
0.0
  0
VERTEX
  5
15E
  8
0
 10
57.9138850069645628
 20
130.0999999999999943
 30
0.0
  0
SEQEND
  5
15C
  8
0
  0
POLYLINE
  5
15F
  8
0
 66
     1
 10
0.0
 20
0.0
 30
0.0
 70
     1
  0
VERTEX
  5
160
  8
0
 10
23.7038770615279688
 20
134.2638898914385095
 30
0.0
 42
-0.1842396492773427
  0
VERTEX
  5
161
  8
0
 10
49.1650770306007772
 20
144.6886760467534998
 30
0.0
  0
VERTEX
  5
163
  8
0
 10
55.2079045062335823
 20
130.0999999999999943
 30
0.0
  0
VERTEX
  5
164
  8
0
 10
50.0999999999999517
 20
130.0999999999999943
 30
0.0
 42
0.1854044600762783
  0
VERTEX
  5
165
  8
0
 10
34.0363541580249915
 20
123.9314127949413944
 30
0.0
  0
SEQEND
  5
162
  8
0
  0
POLYLINE
  5
166
  8
0
 66
     1
 10
0.0
 20
0.0
 30
0.0
 70
     1
  0
VERTEX
  5
167
  8
0
 10
11.5000000000000497
 20
104.333633003682607
 30
0.0
  0
VERTEX
  5
168
  8
0
 10
26.0999999999999517
 20
98.2861149930355111
 30
0.0
  0
VERTEX
  5
16A
  8
0
 10
26.099999999999941
 20
79.3500000000000512
 30
0.0
  0
VERTEX
  5
16B
  8
0
 10
11.5000000000000302
 20
79.3500000000000512
 30
0.0
  0
SEQEND
  5
169
  8
0
  0
POLYLINE
  5
16C
  8
0
 66
     1
 10
0.0
 20
0.0
 30
0.0
 70
     1
  0
VERTEX
  5
16D
  8
0
 10
11.5113239532464799
 20
107.0349229693993038
 30
0.0
 42
-0.1842396492773427
  0
VERTEX
  5
16E
  8
0
 10
21.9361101085615715
 20
132.496122938472098
 30
0.0
  0
VERTEX
  5
170
  8
0
 10
32.2685872050585871
 20
122.1636458419749971
 30
0.0
 42
0.1854044600762794
  0
VERTEX
  5
171
  8
0
 10
26.099999999999941
 20
106.0999999999999943
 30
0.0
  0
VERTEX
  5
172
  8
0
 10
26.0999999999999588
 20
100.9920954937664987
 30
0.0
  0
SEQEND
  5
16F
  8
0
  0
POLYLINE
  5
173
  8
0
 66
     1
 10
0.0
 20
0.0
 30
0.0
 70
     1
  0
VERTEX
  5
174
  8
0
 10
134.2638898914383105
 20
23.7038770615279795
 30
0.0
  0
VERTEX
  5
175
  8
0
 10
123.9314127949412949
 20
34.0363541580249915
 30
0.0
 42
0.1854044600762789
  0
VERTEX
  5
177
  8
0
 10
130.0999999999999091
 20
50.0999999999999872
 30
0.0
  0
VERTEX
  5
178
  8
0
 10
130.0999999999999091
 20
55.2079045062335609
 30
0.0
  0
VERTEX
  5
179
  8
0
 10
144.6886760467533861
 20
49.1650770306007772
 30
0.0
 42
-0.1842396492773428
  0
SEQEND
  5
176
  8
0
  0
POLYLINE
  5
17A
  8
0
 66
     1
 10
0.0
 20
0.0
 30
0.0
 70
     1
  0
VERTEX
  5
17B
  8
0
 10
107.0349229693992044
 20
11.5113239532465403
 30
0.0
  0
VERTEX
  5
17C
  8
0
 10
100.9920954937663993
 20
26.0999999999999908
 30
0.0
  0
VERTEX
  5
17E
  8
0
 10
106.0999999999998948
 20
26.0999999999999908
 30
0.0
 42
0.1854044600762793
  0
VERTEX
  5
17F
  8
0
 10
122.1636458419748976
 20
32.2685872050586369
 30
0.0
  0
VERTEX
  5
180
  8
0
 10
132.496122938471899
 20
21.9361101085616212
 30
0.0
 42
-0.1842396492773425
  0
SEQEND
  5
17D
  8
0
  0
POLYLINE
  5
181
  8
0
 66
     1
 10
0.0
 20
0.0
 30
0.0
 70
     1
  0
VERTEX
  5
182
  8
0
 10
79.3499999999999517
 20
11.5000000000000693
 30
0.0
  0
VERTEX
  5
183
  8
0
 10
79.3499999999999517
 20
26.1000000000000014
 30
0.0
  0
VERTEX
  5
185
  8
0
 10
98.286114993035369
 20
26.0999999999999908
 30
0.0
  0
VERTEX
  5
186
  8
0
 10
104.3336330036824933
 20
11.5000000000000409
 30
0.0
  0
SEQEND
  5
184
  8
0
  0
POLYLINE
  5
187
  8
0
 66
     1
 10
0.0
 20
0.0
 30
0.0
 70
     1
  0
VERTEX
  5
188
  8
0
 10
51.8663669963173319
 20
11.5000000000000906
 30
0.0
  0
VERTEX
  5
189
  8
0
 10
57.9138850069644917
 20
26.1000000000000014
 30
0.0
  0
VERTEX
  5
18B
  8
0
 10
76.8499999999999091
 20
26.1000000000000014
 30
0.0
  0
VERTEX
  5
18C
  8
0
 10
76.8499999999999233
 20
11.5000000000000799
 30
0.0
  0
SEQEND
  5
18A
  8
0
  0
POLYLINE
  5
18D
  8
0
 66
     1
 10
0.0
 20
0.0
 30
0.0
 70
     1
  0
VERTEX
  5
18E
  8
0
 10
23.7038770615279084
 20
21.9361101085616106
 30
0.0
  0
VERTEX
  5
18F
  8
0
 10
34.0363541580249205
 20
32.2685872050586227
 30
0.0
 42
0.1854044600762792
  0
VERTEX
  5
191
  8
0
 10
50.0999999999999375
 20
26.1000000000000014
 30
0.0
  0
VERTEX
  5
192
  8
0
 10
55.2079045062334828
 20
26.1000000000000085
 30
0.0
  0
VERTEX
  5
193
  8
0
 10
49.1650770306006919
 20
11.5113239532465297
 30
0.0
 42
-0.1842396492773425
  0
SEQEND
  5
190
  8
0
  0
POLYLINE
  5
194
  8
0
 66
     1
 10
0.0
 20
0.0
 30
0.0
 70
     1
  0
VERTEX
  5
195
  8
0
 10
11.5113239532464693
 20
49.1650770306007985
 30
0.0
  0
VERTEX
  5
196
  8
0
 10
26.0999999999999304
 20
55.2079045062335894
 30
0.0
  0
VERTEX
  5
198
  8
0
 10
26.0999999999999304
 20
50.1000000000000085
 30
0.0
 42
0.1854044600762788
  0
VERTEX
  5
199
  8
0
 10
32.2685872050585303
 20
34.03635415802502
 30
0.0
  0
VERTEX
  5
19A
  8
0
 10
21.9361101085615218
 20
23.7038770615279901
 30
0.0
 42
-0.1842396492773427
  0
SEQEND
  5
197
  8
0
  0
POLYLINE
  5
19B
  8
0
 66
     1
 10
0.0
 20
0.0
 30
0.0
 70
     1
  0
VERTEX
  5
19C
  8
0
 10
11.5000000000000195
 20
76.8500000000000369
 30
0.0
  0
VERTEX
  5
19D
  8
0
 10
26.099999999999941
 20
76.8500000000000369
 30
0.0
  0
VERTEX
  5
19F
  8
0
 10
26.0999999999999304
 20
57.9138850069645912
 30
0.0
  0
VERTEX
  5
1A0
  8
0
 10
11.5
 20
51.8663669963174385
 30
0.0
  0
SEQEND
  5
19E
  8
0
  0
POLYLINE
  5
1A1
  8
0
 66
     1
 10
0.0
 20
0.0
 30
0.0
 70
     1
  0
VERTEX
  5
1A2
  8
0
 10
-0.4999999999999983
 20
76.8500000000000369
 30
0.0
  0
VERTEX
  5
1A3
  8
0
 10
9.5000000000000071
 20
76.8500000000000369
 30
0.0
  0
VERTEX
  5
1A5
  8
0
 10
9.5000000000000018
 20
51.0379398715712398
 30
0.0
  0
VERTEX
  5
1A6
  8
0
 10
-0.4999999999999983
 20
46.8958042478402888
 30
0.0
  0
SEQEND
  5
1A4
  8
0
  0
POLYLINE
  5
1A7
  8
0
 66
     1
 10
0.0
 20
0.0
 30
0.0
 70
     1
  0
VERTEX
  5
1A8
  8
0
 10
139.4702904772921102
 20
125.5006111620520954
 30
0.0
 42
-0.1262615989945841
  0
VERTEX
  5
1A9
  8
0
 10
144.6886760467533861
 20
107.0349229693992044
 30
0.0
  0
VERTEX
  5
1AB
  8
0
 10
130.0999999999999091
 20
100.9920954937663993
 30
0.0
  0
VERTEX
  5
1AC
  8
0
 10
130.0999999999999091
 20
106.0999999999998948
 30
0.0
 42
0.4142135623730953
  0
VERTEX
  5
1AD
  8
0
 10
106.0999999999998948
 20
130.0999999999999943
 30
0.0
  0
VERTEX
  5
1AE
  8
0
 10
100.9920954937663993
 20
130.0999999999999091
 30
0.0
  0
VERTEX
  5
1AF
  8
0
 10
107.0349229693992044
 20
144.6886760467534998
 30
0.0
 42
-0.1262615989945834
  0
VERTEX
  5
1B0
  8
0
 10
125.500611162051996
 20
139.4702904772921954
 30
0.0
 42
0.3092153286697715
  0
SEQEND
  5
1AA
  8
0
  0
POLYLINE
  5
1B1
  8
0
 66
     1
 10
0.0
 20
0.0
 30
0.0
 70
     1
  0
VERTEX
  5
1B2
  8
0
 10
144.1856290051327107
 20
125.2631738421492997
 30
0.0
 42
0.2137435961458298
  0
VERTEX
  5
1B3
  8
0
 10
156.6999999999999034
 20
132.2000000000001023
 30
0.0
  0
VERTEX
  5
1B5
  8
0
 10
156.6999999999999886
 20
112.0101762528907017
 30
0.0
  0
VERTEX
  5
1B6
  8
0
 10
146.6621646838632103
 20
107.8523687280792984
 30
0.0
 42
0.0977897207768108
  0
VERTEX
  5
1B7
  8
0
 10
142.9514614381531885
 20
123.1390665786685048
 30
0.0
 42
-0.5202598571457092
  0
SEQEND
  5
1B4
  8
0
  0
CIRCLE
  5
1B8
  8
0
 10
142.6999999999999034
 20
142.7000000000001023
 30
0.0
 40
12.4999999999999805
  0
ENDSEC
  0
EOF
