  0
SECTION
  2
HEADER
  9
$ACADVER
  1
AC1009
  9
$INSBASE
 10
0.0
 20
0.0
 30
0.0
  9
$EXTMIN
 10
0.0
 20
0.0
 30
0.0
  9
$EXTMAX
 10
207.4510719323673982
 20
207.4510719323673982
 30
0.0
  9
$LIMMIN
 10
0.0
 20
0.0
  9
$LIMMAX
 10
207.4510719323673982
 20
207.4510719323673982
  9
$ORTHOMODE
 70
     0
  9
$REGENMODE
 70
     1
  9
$FILLMODE
 70
     1
  9
$QTEXTMODE
 70
     0
  9
$MIRRTEXT
 70
     0
  9
$DRAGMODE
 70
     2
  9
$LTSCALE
 40
1.0
  9
$OSMODE
 70
     0
  9
$ATTMODE
 70
     1
  9
$TEXTSIZE
 40
0.2
  9
$TRACEWID
 40
0.05
  9
$TEXTSTYLE
  7
STANDARD
  9
$CLAYER
  8
0
  9
$CELTYPE
  6
BYLAYER
  9
$CECOLOR
 62
   256
  9
$DIMSCALE
 40
1.0
  9
$DIMASZ
 40
1.7999999999999989
  9
$DIMEXO
 40
0.0625
  9
$DIMDLI
 40
0.38
  9
$DIMRND
 40
0.0
  9
$DIMDLE
 40
0.0
  9
$DIMEXE
 40
0.18
  9
$DIMTP
 40
0.0
  9
$DIMTM
 40
0.0
  9
$DIMTXT
 40
1.7999999999999989
  9
$DIMCEN
 40
0.09
  9
$DIMTSZ
 40
0.0
  9
$DIMTOL
 70
     0
  9
$DIMLIM
 70
     0
  9
$DIMTIH
 70
     1
  9
$DIMTOH
 70
     1
  9
$DIMSE1
 70
     0
  9
$DIMSE2
 70
     0
  9
$DIMTAD
 70
     0
  9
$DIMZIN
 70
     0
  9
$DIMBLK
  1

  9
$DIMASO
 70
     1
  9
$DIMSHO
 70
     1
  9
$DIMPOST
  1

  9
$DIMAPOST
  1

  9
$DIMALT
 70
     0
  9
$DIMALTD
 70
     2
  9
$DIMALTF
 40
25.3999999999999986
  9
$DIMLFAC
 40
1.0
  9
$DIMTOFL
 70
     0
  9
$DIMTVP
 40
0.0
  9
$DIMTIX
 70
     0
  9
$DIMSOXD
 70
     0
  9
$DIMSAH
 70
     0
  9
$DIMBLK1
  1

  9
$DIMBLK2
  1

  9
$DIMSTYLE
  2
STANDARD
  9
$DIMCLRD
 70
     0
  9
$DIMCLRE
 70
     0
  9
$DIMCLRT
 70
     0
  9
$DIMTFAC
 40
1.0
  9
$DIMGAP
 40
0.09
  9
$LUNITS
 70
     2
  9
$LUPREC
 70
     4
  9
$SKETCHINC
 40
0.1
  9
$FILLETRAD
 40
0.0
  9
$AUNITS
 70
     0
  9
$AUPREC
 70
     0
  9
$MENU
  1
.
  9
$ELEVATION
 40
0.0
  9
$PELEVATION
 40
0.0
  9
$THICKNESS
 40
0.0
  9
$LIMCHECK
 70
     0
  9
$BLIPMODE
 70
     0
  9
$CHAMFERA
 40
0.0
  9
$CHAMFERB
 40
0.0
  9
$SKPOLY
 70
     0
  9
$TDCREATE
 40
2458820.9509837958030403
  9
$TDUPDATE
 40
2458820.9509837958030403
  9
$TDINDWG
 40
0.0
  9
$TDUSRTIMER
 40
0.0
  9
$USRTIMER
 70
     1
  9
$ANGBASE
 50
0.0
  9
$ANGDIR
 70
     0
  9
$PDMODE
 70
     0
  9
$PDSIZE
 40
0.0
  9
$PLINEWID
 40
0.0
  9
$COORDS
 70
     0
  9
$SPLFRAME
 70
     0
  9
$SPLINETYPE
 70
     6
  9
$SPLINESEGS
 70
     8
  9
$ATTDIA
 70
     1
  9
$ATTREQ
 70
     1
  9
$HANDLING
 70
     1
  9
$HANDSEED
  5
20C
  9
$SURFTAB1
 70
     6
  9
$SURFTAB2
 70
     6
  9
$SURFTYPE
 70
     6
  9
$SURFU
 70
     6
  9
$SURFV
 70
     6
  9
$UCSNAME
  2

  9
$UCSORG
 10
0.0
 20
0.0
 30
0.0
  9
$UCSXDIR
 10
1.0
 20
0.0
 30
0.0
  9
$UCSYDIR
 10
0.0
 20
1.0
 30
0.0
  9
$PUCSNAME
  2

  9
$PUCSORG
 10
0.0
 20
0.0
 30
0.0
  9
$PUCSXDIR
 10
1.0
 20
0.0
 30
0.0
  9
$PUCSYDIR
 10
0.0
 20
1.0
 30
0.0
  9
$USERI1
 70
     0
  9
$USERI2
 70
     0
  9
$USERI3
 70
     0
  9
$USERI4
 70
     0
  9
$USERI5
 70
     0
  9
$USERR1
 40
0.0
  9
$USERR2
 40
0.0
  9
$USERR3
 40
0.0
  9
$USERR4
 40
0.0
  9
$USERR5
 40
0.0
  9
$WORLDVIEW
 70
     1
  9
$SHADEDGE
 70
     3
  9
$SHADEDIF
 70
    70
  9
$TILEMODE
 70
     1
  9
$MAXACTVP
 70
    64
  9
$PLIMCHECK
 70
     0
  9
$PEXTMIN
 10
0.0
 20
0.0
 30
0.0
  9
$PEXTMAX
 10
207.4510719323673982
 20
207.4510719323673982
 30
0.0
  9
$PLIMMIN
 10
0.0
 20
0.0
  9
$PLIMMAX
 10
207.4510719323673982
 20
207.4510719323673982
  9
$UNITMODE
 70
     0
  9
$VISRETAIN
 70
     1
  9
$PLINEGEN
 70
     0
  9
$PSLTSCALE
 70
     1
  0
ENDSEC
  0
SECTION
  2
TABLES
  0
TABLE
  2
VPORT
 70
     1
  0
VPORT
  2
*ACTIVE
 70
     0
 10
0.0
 20
0.0
 11
1.0
 21
1.0
 12
78.0000000000000568
 22
78.0000000000000568
 13
0.0
 23
0.0
 14
1.0
 24
1.0
 15
0.0
 25
0.0
 16
0.0
 26
0.0
 36
1.0
 17
0.0
 27
0.0
 37
0.0
 40
207.4510719323673982
 41
1.0
 42
50.0
 43
0.0
 44
0.0
 50
0.0
 51
0.0
 71
     0
 72
   100
 73
     1
 74
     1
 75
     0
 76
     0
 77
     0
 78
     0
  0
ENDTAB
  0
TABLE
  2
LTYPE
 70
    59
  0
LTYPE
  2
CONTINUOUS
 70
     0
  3
Solid line
 72
    65
 73
     0
 40
0.0
  0
LTYPE
  2
BY_STANDARD
 70
     0
  3
By Standard ____________    ____    ____   _
 72
    65
 73
     6
 40
1.2402999999999991
 49
0.6614
 49
-0.0827
 49
0.1654
 49
-0.0827
 49
0.1654
 49
-0.0827
  0
LTYPE
  2
CHAIN
 70
     0
  3
Chain ____ _ ____ _ ____ _ ____ _ ____ _ ____
 72
    65
 73
     4
 40
0.7087
 49
0.4724000000000001
 49
-0.0591
 49
0.1181
 49
-0.0591
  0
LTYPE
  2
DASH_DOT
 70
     0
  3
Dash dot __ . __ . __ . __ . __ . __ . __ . __
 72
    65
 73
     4
 40
0.37
 49
0.24
 49
-0.06
 49
0.01
 49
-0.06
  0
LTYPE
  2
DOUBLE_DASH_DOT
 70
     0
  3
Double-Dash Dot __ __ . __ __ . __ __ . __ _
 72
    65
 73
     6
 40
0.4398
 49
0.24
 49
-0.06
 49
0.0098
 49
-0.06
 49
0.01
 49
-0.06
  0
LTYPE
  2
DASH_TRIPLE_DOT
 70
     0
  3
Dash Triple-Dot _ . . . _ . . . _ . . . _
 72
    65
 73
     8
 40
0.51
 49
0.24
 49
-0.06
 49
0.01
 49
-0.06
 49
0.01
 49
-0.06
 49
0.01
 49
-0.06
  0
LTYPE
  2
DASHED
 70
     0
  3
Dashed __ __ __ __ __ __ __ __ __ __ __ __ __ _
 72
    65
 73
     2
 40
0.2067
 49
0.1654
 49
-0.0413
  0
LTYPE
  2
DASH_DOUBLE_DOT
 70
     0
  3
Dash Double-Dot __ . . __ . . __ . . __ . .
 72
    65
 73
     6
 40
0.4398
 49
0.24
 49
-0.06
 49
0.0098
 49
-0.06
 49
0.01
 49
-0.06
  0
LTYPE
  2
DASHED_SPACE
 70
     0
  3
Dashed Space __ __ __ __ __ __ __ __ __ __ __ _
 72
    65
 73
     2
 40
0.2067
 49
0.1654
 49
-0.0413
  0
LTYPE
  2
DOTTED
 70
     0
  3
Dotted . . . . . . . . . . . . . . . . . . . . 
 72
    65
 73
     2
 40
0.0482
 49
0.0069
 49
-0.0413
  0
LTYPE
  2
DOUBLE_DASH_CHAIN
 70
     0
  3
Double-Dash Chain ______  __  __  ______  __  _
 72
    65
 73
     6
 40
1.2402999999999991
 49
0.6614
 49
-0.0827
 49
0.1654
 49
-0.0827
 49
0.1654
 49
-0.0827
  0
LTYPE
  2
DOUBLE_DASH_DOUBLE_DOT
 70
     0
  3
Double-Dash Double-dot _ _ . . _ _ . . _
 72
    65
 73
     8
 40
0.7400000000000001
 49
0.24
 49
-0.06
 49
0.24
 49
-0.06
 49
0.01
 49
-0.06
 49
0.01
 49
-0.06
  0
LTYPE
  2
DOUBLE_DASH_TRIPLE_DOT
 70
     0
  3
Double Dash Triple Dot __ __ . . . __ __ . .
 72
    65
 73
    10
 40
0.8100000000000001
 49
0.24
 49
-0.06
 49
0.24
 49
-0.06
 49
0.01
 49
-0.06
 49
0.01
 49
-0.06
 49
0.01
 49
-0.06
  0
LTYPE
  2
LONG_DASH_DOTTED
 70
     0
  3
Long Dash Dotted ____ . ____ . ____ . ____ . _
 72
    65
 73
     4
 40
0.3543
 49
0.2362
 49
-0.0295
 49
0.0591
 49
-0.0295
  0
LTYPE
  2
LONG_DASH_DOUBLE_DOT
 70
     0
  3
Long Dash Double Dot ________  .  .  ________  
 72
    65
 73
     6
 40
0.6799999999999999
 49
0.48
 49
-0.06
 49
0.01
 49
-0.06
 49
0.01
 49
-0.06
  0
LTYPE
  2
LONG_DASH_TRIPLE_DOT
 70
     0
  3
Long Dash Triple Dot ____ ... ____ ... ____
 72
    65
 73
     8
 40
0.3689
 49
0.2362
 49
-0.0295
 49
0.0049
 49
-0.0295
 49
0.0049
 49
-0.0295
 49
0.0049
 49
-0.0295
  0
LTYPE
  2
BORDER
 70
     0
  3
Border __ __ . __ __ . __ __ . __ __ . __ __ .
 72
    65
 73
     6
 40
1.75
 49
0.5
 49
-0.25
 49
0.5
 49
-0.25
 49
0.0
 49
-0.25
  0
LTYPE
  2
BORDER2
 70
     0
  3
Border (.5x) __.__.__.__.__.__.__.__.__.__.__.
 72
    65
 73
     6
 40
0.875
 49
0.25
 49
-0.125
 49
0.25
 49
-0.125
 49
0.0
 49
-0.125
  0
LTYPE
  2
BORDERX2
 70
     0
  3
Border (2x) ____  ____  .  ____  ____  .  ___
 72
    65
 73
     6
 40
3.5
 49
1.0
 49
-0.5
 49
1.0
 49
-0.5
 49
0.0
 49
-0.5
  0
LTYPE
  2
CENTER
 70
     0
  3
Center ____ _ ____ _ ____ _ ____ _ ____ _ ____
 72
    65
 73
     4
 40
2.0
 49
1.25
 49
-0.25
 49
0.25
 49
-0.25
  0
LTYPE
  2
CENTER2
 70
     0
  3
Center (.5x) ___ _ ___ _ ___ _ ___ _ ___ _ ___
 72
    65
 73
     4
 40
1.125
 49
0.75
 49
-0.125
 49
0.125
 49
-0.125
  0
LTYPE
  2
CENTERX2
 70
     0
  3
Center (2x) ________  __  ________  __  _____
 72
    65
 73
     4
 40
4.0
 49
2.5
 49
-0.5
 49
0.5
 49
-0.5
  0
LTYPE
  2
DASHDOT2
 70
     0
  3
Dash dot (.5x) _._._._._._._._._._._._._._._.
 72
    65
 73
     4
 40
0.5
 49
0.25
 49
-0.125
 49
0.0
 49
-0.125
  0
LTYPE
  2
DASHDOTX2
 70
     0
  3
Dash dot (2x) ____  .  ____  .  ____  .  ___
 72
    65
 73
     4
 40
2.0
 49
1.0
 49
-0.5
 49
0.0
 49
-0.5
  0
LTYPE
  2
DASHED2
 70
     0
  3
Dashed (.5x) _ _ _ _ _ _ _ _ _ _ _ _ _ _ _ _ _
 72
    65
 73
     2
 40
0.375
 49
0.25
 49
-0.125
  0
LTYPE
  2
DASHEDX2
 70
     0
  3
Dashed (2x) ____  ____  ____  ____  ____  ___
 72
    65
 73
     2
 40
1.5
 49
1.0
 49
-0.5
  0
LTYPE
  2
DIVIDE
 70
     0
  3
Divide ____ . . ____ . . ____ . . ____ . . ____
 72
    65
 73
     6
 40
1.25
 49
0.5
 49
-0.25
 49
0.0
 49
-0.25
 49
0.0
 49
-0.25
  0
LTYPE
  2
DIVIDE2
 70
     0
  3
Divide (.5x) __..__..__..__..__..__..__..__.._
 72
    65
 73
     6
 40
0.625
 49
0.25
 49
-0.125
 49
0.0
 49
-0.125
 49
0.0
 49
-0.125
  0
LTYPE
  2
DIVIDEX2
 70
     0
  3
Divide (2x) ________  .  .  ________  .  .  _
 72
    65
 73
     6
 40
2.5
 49
1.0
 49
-0.5
 49
0.0
 49
-0.5
 49
0.0
 49
-0.5
  0
LTYPE
  2
DOT
 70
     0
  3
Dot . . . . . . . . . . . . . . . . . . . . . .
 72
    65
 73
     2
 40
0.25
 49
0.0
 49
-0.25
  0
LTYPE
  2
DOT2
 70
     0
  3
Dot (.5x) .....................................
 72
    65
 73
     2
 40
0.125
 49
0.0
 49
-0.125
  0
LTYPE
  2
DOTX2
 70
     0
  3
Dot (2x) .  .  .  .  .  .  .  .  .  .  .  .  . 
 72
    65
 73
     2
 40
0.5
 49
0.0
 49
-0.5
  0
LTYPE
  2
HIDDEN
 70
     0
  3
Hidden __ __ __ __ __ __ __ __ __ __ __ __ __ _
 72
    65
 73
     2
 40
0.375
 49
0.25
 49
-0.125
  0
LTYPE
  2
HIDDEN2
 70
     0
  3
Hidden (.5x) _ _ _ _ _ _ _ _ _ _ _ _ _ _ _ _ _
 72
    65
 73
     2
 40
0.1875
 49
0.125
 49
-0.0625
  0
LTYPE
  2
HIDDENX2
 70
     0
  3
Hidden (2x) ____ ____ ____ ____ ____ ____ ____
 72
    65
 73
     2
 40
0.75
 49
0.5
 49
-0.25
  0
LTYPE
  2
PHANTOM
 70
     0
  3
Phantom ______  __  __  ______  __  __  ______
 72
    65
 73
     6
 40
2.5
 49
1.25
 49
-0.25
 49
0.25
 49
-0.25
 49
0.25
 49
-0.25
  0
LTYPE
  2
PHANTOM2
 70
     0
  3
Phantom (.5x) ___ _ _ ___ _ _ ___ _ _ ___ _ _
 72
    65
 73
     6
 40
1.25
 49
0.625
 49
-0.125
 49
0.125
 49
-0.125
 49
0.125
 49
-0.125
  0
LTYPE
  2
PHANTOMX2
 70
     0
  3
Phantom (2x) ____________    ____    ____   _
 72
    65
 73
     6
 40
5.0
 49
2.5
 49
-0.5
 49
0.5
 49
-0.5
 49
0.5
 49
-0.5
  0
LTYPE
  2
ACAD_ISO02W100
 70
     0
  3
ISO dash __ __ __ __ __ __ __ __ __ __ __ __ __
 72
    65
 73
     2
 40
0.59
 49
0.47
 49
-0.12
  0
LTYPE
  2
ACAD_ISO03W100
 70
     0
  3
ISO dash space __    __    __    __    __    __
 72
    65
 73
     2
 40
1.179999999999999
 49
0.47
 49
-0.71
  0
LTYPE
  2
ACAD_ISO04W100
 70
     0
  3
ISO long-dash dot ____ . ____ . ____ . ____ . _
 72
    65
 73
     4
 40
1.179999999999999
 49
0.9399999999999998
 49
-0.12
 49
0.0
 49
-0.12
  0
LTYPE
  2
ACAD_ISO05W100
 70
     0
  3
ISO long-dash double-dot ____ .. ____ .. ____ .
 72
    65
 73
     6
 40
1.2999999999999989
 49
0.9399999999999998
 49
-0.12
 49
0.0
 49
-0.12
 49
0.0
 49
-0.12
  0
LTYPE
  2
ACAD_ISO06W100
 70
     0
  3
ISO long-dash triple-dot ____ ... ____ ... ____
 72
    65
 73
     8
 40
1.419999999999999
 49
0.9399999999999998
 49
-0.12
 49
0.0
 49
-0.12
 49
0.0
 49
-0.12
 49
0.0
 49
-0.12
  0
LTYPE
  2
ACAD_ISO07W100
 70
     0
  3
ISO dot . . . . . . . . . . . . . . . . . . . .
 72
    65
 73
     2
 40
0.12
 49
0.0
 49
-0.12
  0
LTYPE
  2
ACAD_ISO08W100
 70
     0
  3
ISO long-dash short-dash ____ __ ____ __ ____ _
 72
    65
 73
     4
 40
0.95
 49
0.47
 49
-0.12
 49
0.24
 49
-0.12
  0
LTYPE
  2
ACAD_ISO09W100
 70
     0
  3
ISO long-dash double-short-dash ____ __ __ ____
 72
    65
 73
     6
 40
1.3100000000000001
 49
0.47
 49
-0.12
 49
0.24
 49
-0.12
 49
0.24
 49
-0.12
  0
LTYPE
  2
ACAD_ISO10W100
 70
     0
  3
ISO dash dot __ . __ . __ . __ . __ . __ . __ .
 72
    65
 73
     4
 40
0.71
 49
0.47
 49
-0.12
 49
0.0
 49
-0.12
  0
LTYPE
  2
ACAD_ISO11W100
 70
     0
  3
ISO double-dash dot __ __ . __ __ . __ __ . __ 
 72
    65
 73
     6
 40
1.2999999999999989
 49
0.47
 49
-0.12
 49
0.47
 49
-0.12
 49
0.0
 49
-0.12
  0
LTYPE
  2
ACAD_ISO12W100
 70
     0
  3
ISO dash double-dot __ . . __ . . __ . . __ . .
 72
    65
 73
     6
 40
0.8299999999999998
 49
0.47
 49
-0.12
 49
0.0
 49
-0.12
 49
0.0
 49
-0.12
  0
LTYPE
  2
ACAD_ISO13W100
 70
     0
  3
ISO double-dash double-dot __ __ . . __ __ . . 
 72
    65
 73
     8
 40
1.419999999999999
 49
0.47
 49
-0.12
 49
0.47
 49
-0.12
 49
0.0
 49
-0.12
 49
0.0
 49
-0.12
  0
LTYPE
  2
ACAD_ISO14W100
 70
     0
  3
ISO dash triple-dot __ . . . __ . . . __ . . . 
 72
    65
 73
     8
 40
0.95
 49
0.47
 49
-0.12
 49
0.0
 49
-0.12
 49
0.0
 49
-0.12
 49
0.0
 49
-0.12
  0
LTYPE
  2
ACAD_ISO15W100
 70
     0
  3
ISO double-dash triple-dot __ __ . . . __ __ . 
 72
    65
 73
    10
 40
1.5399999999999989
 49
0.47
 49
-0.12
 49
0.47
 49
-0.12
 49
0.0
 49
-0.12
 49
0.0
 49
-0.12
 49
0.0
 49
-0.12
  0
LTYPE
  2
FENCELINE1
 70
     0
  3
Fenceline circle ----0-----0----0-----0----0---
 72
    65
 73
     4
 40
1.45
 49
0.25
 49
-0.1
 49
-0.1
 49
1.0
  0
LTYPE
  2
FENCELINE2
 70
     0
  3
Fenceline square ----[]-----[]----[]-----[]----
 72
    65
 73
     4
 40
1.45
 49
0.25
 49
-0.1
 49
-0.1
 49
1.0
  0
LTYPE
  2
TRACKS
 70
     0
  3
Tracks -|-|-|-|-|-|-|-|-|-|-|-|-|-|-|-|-|-|-|-|
 72
    65
 73
     2
 40
0.3
 49
0.15
 49
0.15
  0
LTYPE
  2
BATTING
 70
     0
  3
Batting SSSSSSSSSSSSSSSSSSSSSSSSSSSSSSSSSSSSSSS
 72
    65
 73
     4
 40
0.4001000000000001
 49
0.0001
 49
-0.1
 49
-0.2
 49
-0.1
  0
LTYPE
  2
HOT_WATER_SUPPLY
 70
     0
  3
Hot water supply ---- HW ---- HW ---- HW ----
 72
    65
 73
     3
 40
0.9
 49
0.5
 49
-0.2
 49
-0.2
  0
LTYPE
  2
GAS_LINE
 70
     0
  3
Gas line ----GAS----GAS----GAS----GAS----GAS---
 72
    65
 73
     3
 40
0.95
 49
0.5
 49
-0.2
 49
-0.25
  0
LTYPE
  2
ZIGZAG
 70
     0
  3
Zig zag /\/\/\/\/\/\/\/\/\/\/\/\/\/\/\/\/\/\/\/
 72
    65
 73
     4
 40
0.8001000000000001
 49
0.0001
 49
-0.2
 49
-0.4
 49
-0.2
  0
ENDTAB
  0
TABLE
  2
LAYER
 70
     1
  0
LAYER
  2
0
 70
     0
 62
     7
  6
CONTINUOUS
  0
ENDTAB
  0
TABLE
  2
STYLE
 70
     3
  0
STYLE
  2
STANDARD
 70
     0
 40
0.0
 41
1.0
 50
0.0
 71
     0
 42
0.2
  3
txt
  4

  0
STYLE
  2
ANNOTATIVE
 70
     0
 40
0.0
 41
1.0
 50
0.0
 71
     0
 42
0.2
  3
txt
  4

  0
STYLE
  2

 70
     1
 40
0.0
 41
1.0
 50
0.0
 71
     0
 42
0.2
  3
ltypeshp.shx
  4

  0
ENDTAB
  0
TABLE
  2
VIEW
 70
     0
  0
ENDTAB
  0
TABLE
  2
UCS
 70
     0
  0
ENDTAB
  0
TABLE
  2
APPID
 70
     3
  0
APPID
  2
ACAD
 70
     0
  0
APPID
  2
ACADANNOTATIVE
 70
     0
  0
APPID
  2
ACAD_MLEADERVER
 70
     0
  0
ENDTAB
  0
TABLE
  2
DIMSTYLE
 70
     2
  0
DIMSTYLE
  2
STANDARD
 70
     0
  3

  4

  5

  6

  7

 40
1.0
 41
0.18
 42
0.0625
 43
0.38
 44
0.18
 45
0.0
 46
0.0
 47
0.0
 48
0.0
140
0.18
141
0.09
142
0.0
143
25.3999999999999986
144
1.0
145
0.0
146
1.0
147
0.09
 71
     0
 72
     0
 73
     1
 74
     1
 75
     0
 76
     0
 77
     0
 78
     0
170
     0
171
     2
172
     0
173
     0
174
     0
175
     0
176
     0
177
     0
178
     0
  0
DIMSTYLE
  2
ANNOTATIVE
 70
     0
  3

  4

  5

  6

  7

 40
1.0
 41
0.18
 42
0.0625
 43
0.38
 44
0.18
 45
0.0
 46
0.0
 47
0.0
 48
0.0
140
0.18
141
0.09
142
0.0
143
25.3999999999999986
144
1.0
145
0.0
146
1.0
147
0.09
 71
     0
 72
     0
 73
     1
 74
     1
 75
     0
 76
     0
 77
     0
 78
     0
170
     0
171
     2
172
     0
173
     0
174
     0
175
     0
176
     0
177
     0
178
     0
  0
ENDTAB
  0
ENDSEC
  0
SECTION
  2
BLOCKS
  0
BLOCK
  8
0
  2
$MODEL_SPACE
 70
     0
 10
0.0
 20
0.0
 30
0.0
  3
$MODEL_SPACE
  1

  0
ENDBLK
  5
72
  8
0
  0
BLOCK
 67
     1
  8
0
  2
$PAPER_SPACE
 70
     0
 10
0.0
 20
0.0
 30
0.0
  3
$PAPER_SPACE
  1

  0
ENDBLK
  5
6E
 67
     1
  8
0
  0
ENDSEC
  0
SECTION
  2
ENTITIES
  0
POLYLINE
  5
B6
  8
0
 66
     1
 10
0.0
 20
0.0
 30
0.0
 70
     1
  0
VERTEX
  5
B7
  8
0
 10
158.6250000000001137
 20
3.625000000000036
 30
0.0
  0
VERTEX
  5
B8
  8
0
 10
158.6250000000001137
 20
-2.6249999999999631
 30
0.0
  0
VERTEX
  5
BA
  8
0
 10
152.3750000000001137
 20
-2.6249999999999649
 30
0.0
  0
VERTEX
  5
BB
  8
0
 10
152.3750000000001137
 20
3.6250000000000342
 30
0.0
  0
SEQEND
  5
B9
  8
0
  0
POLYLINE
  5
BD
  8
0
 66
     1
 10
0.0
 20
0.0
 30
0.0
 70
     1
  0
VERTEX
  5
BE
  8
0
 10
3.6249999999999658
 20
158.625
 30
0.0
  0
VERTEX
  5
BF
  8
0
 10
3.624999999999968
 20
152.375
 30
0.0
  0
VERTEX
  5
C1
  8
0
 10
-2.6250000000000311
 20
152.375
 30
0.0
  0
VERTEX
  5
C2
  8
0
 10
-2.625000000000032
 20
158.625
 30
0.0
  0
SEQEND
  5
C0
  8
0
  0
POLYLINE
  5
C3
  8
0
 66
     1
 10
0.0
 20
0.0
 30
0.0
 70
     1
  0
VERTEX
  5
C4
  8
0
 10
3.6250000000000022
 20
3.6250000000000009
 30
0.0
  0
VERTEX
  5
C5
  8
0
 10
3.6250000000000031
 20
-2.6249999999999978
 30
0.0
  0
VERTEX
  5
C7
  8
0
 10
-2.624999999999996
 20
-2.625
 30
0.0
  0
VERTEX
  5
C8
  8
0
 10
-2.6249999999999969
 20
3.6249999999999991
 30
0.0
  0
SEQEND
  5
C6
  8
0
  0
POLYLINE
  5
C9
  8
0
 66
     1
 10
0.0
 20
0.0
 30
0.0
 70
     1
  0
VERTEX
  5
CA
  8
0
 10
152.375
 20
152.375
 30
0.0
  0
VERTEX
  5
CB
  8
0
 10
152.375
 20
158.625
 30
0.0
  0
VERTEX
  5
CD
  8
0
 10
158.625
 20
158.625
 30
0.0
  0
VERTEX
  5
CE
  8
0
 10
158.625
 20
152.375
 30
0.0
  0
SEQEND
  5
CC
  8
0
  0
POLYLINE
  5
CF
  8
0
 66
     1
 10
0.0
 20
0.0
 30
0.0
 70
     1
  0
VERTEX
  5
D0
  8
0
 10
118.9173401106390031
 20
120.3315536730120954
 30
0.0
 42
0.185943952416751
  0
VERTEX
  5
D1
  8
0
 10
105.5
 20
125.5000000000000995
 30
0.0
  0
VERTEX
  5
D3
  8
0
 10
99.0281344630875253
 20
125.5000000000000995
 30
0.0
  0
VERTEX
  5
D4
  8
0
 10
106.4787566417628994
 20
143.4873931118760879
 30
0.0
 42
-0.1342378339892989
  0
VERTEX
  5
D5
  8
0
 10
125.6696229864677008
 20
137.7053770135323134
 30
0.0
 42
0.1131534534696924
  0
VERTEX
  5
D6
  8
0
 10
129.4387441182076088
 20
130.8529576805808006
 30
0.0
  0
SEQEND
  5
D2
  8
0
  0
POLYLINE
  5
D7
  8
0
 66
     1
 10
0.0
 20
0.0
 30
0.0
 70
     1
  0
VERTEX
  5
D8
  8
0
 10
122.8532805652422013
 20
141.5397510205604874
 30
0.0
 42
0.1013028911827244
  0
VERTEX
  5
D9
  8
0
 10
107.2957016645807045
 20
145.4596728656757989
 30
0.0
  0
VERTEX
  5
DB
  8
0
 10
111.8687548966533996
 20
156.5
 30
0.0
  0
VERTEX
  5
DC
  8
0
 10
131.9999999999998863
 20
156.5
 30
0.0
 42
0.2306393425820424
  0
VERTEX
  5
DD
  8
0
 10
125.0037105401410003
 20
142.8603541824764136
 30
0.0
 42
-0.5459599910664218
  0
SEQEND
  5
DA
  8
0
  0
POLYLINE
  5
DE
  8
0
 66
     1
 10
0.0
 20
0.0
 30
0.0
 70
     1
  0
VERTEX
  5
DF
  8
0
 10
-0.4999999999999983
 20
76.7499999999999858
 30
0.0
  0
VERTEX
  5
E0
  8
0
 10
10.4999999999999893
 20
76.75
 30
0.0
  0
VERTEX
  5
E2
  8
0
 10
10.5
 20
51.3935747901815319
 30
0.0
  0
VERTEX
  5
E3
  8
0
 10
-0.4999999999999983
 20
46.8372256040774886
 30
0.0
  0
SEQEND
  5
E1
  8
0
  0
POLYLINE
  5
E4
  8
0
 66
     1
 10
0.0
 20
0.0
 30
0.0
 70
     1
  0
VERTEX
  5
E5
  8
0
 10
12.5
 20
76.75
 30
0.0
  0
VERTEX
  5
E6
  8
0
 10
30.5
 20
76.7500000000000142
 30
0.0
  0
VERTEX
  5
E8
  8
0
 10
30.5000000000000107
 20
59.6778460376434623
 30
0.0
  0
VERTEX
  5
E9
  8
0
 10
12.5
 20
52.2220019149277377
 30
0.0
  0
SEQEND
  5
E7
  8
0
  0
POLYLINE
  5
EA
  8
0
 66
     1
 10
0.0
 20
0.0
 30
0.0
 70
     1
  0
VERTEX
  5
EB
  8
0
 10
12.5126068881239796
 20
49.5212433582370366
 30
0.0
  0
VERTEX
  5
EC
  8
0
 10
30.5000000000000213
 20
56.9718655369124889
 30
0.0
  0
VERTEX
  5
EE
  8
0
 10
30.5000000000000213
 20
50.5000000000000426
 30
0.0
 42
0.1827076297318556
  0
VERTEX
  5
EF
  8
0
 10
35.5016292852215969
 20
37.2693962381879018
 30
0.0
  0
VERTEX
  5
F0
  8
0
 10
22.7606003303769491
 20
24.5283672833432291
 30
0.0
 42
-0.1837103142609863
  0
SEQEND
  5
ED
  8
0
  0
POLYLINE
  5
F1
  8
0
 66
     1
 10
0.0
 20
0.0
 30
0.0
 70
     1
  0
VERTEX
  5
F2
  8
0
 10
24.5283672833433108
 20
22.7606003303768816
 30
0.0
  0
VERTEX
  5
F3
  8
0
 10
37.2693962381879587
 20
35.5016292852215471
 30
0.0
 42
0.1827076297318543
  0
VERTEX
  5
F5
  8
0
 10
50.5
 20
30.5000000000000391
 30
0.0
  0
VERTEX
  5
F6
  8
0
 10
56.9718655369125884
 20
30.5000000000000391
 30
0.0
  0
VERTEX
  5
F7
  8
0
 10
49.5212433582371503
 20
12.5126068881240098
 30
0.0
 42
-0.1837103142609863
  0
SEQEND
  5
F4
  8
0
  0
POLYLINE
  5
F8
  8
0
 66
     1
 10
0.0
 20
0.0
 30
0.0
 70
     1
  0
VERTEX
  5
F9
  8
0
 10
52.2220019149278514
 20
12.5000000000000409
 30
0.0
  0
VERTEX
  5
FA
  8
0
 10
59.6778460376435405
 20
30.5000000000000391
 30
0.0
  0
VERTEX
  5
FC
  8
0
 10
76.7500000000000853
 20
30.5
 30
0.0
  0
VERTEX
  5
FD
  8
0
 10
76.7500000000000995
 20
12.5000000000000409
 30
0.0
  0
SEQEND
  5
FB
  8
0
  0
POLYLINE
  5
FE
  8
0
 66
     1
 10
0.0
 20
0.0
 30
0.0
 70
     1
  0
VERTEX
  5
FF
  8
0
 10
79.2500000000000853
 20
12.5000000000000409
 30
0.0
  0
VERTEX
  5
100
  8
0
 10
79.2500000000000711
 20
30.4999999999999893
 30
0.0
  0
VERTEX
  5
102
  8
0
 10
96.3221539623565803
 20
30.5000000000000604
 30
0.0
  0
VERTEX
  5
103
  8
0
 10
103.7779980850722978
 20
12.5000000000000497
 30
0.0
  0
SEQEND
  5
101
  8
0
  0
POLYLINE
  5
104
  8
0
 66
     1
 10
0.0
 20
0.0
 30
0.0
 70
     1
  0
VERTEX
  5
105
  8
0
 10
106.4787566417629989
 20
12.5126068881240293
 30
0.0
  0
VERTEX
  5
106
  8
0
 10
99.0281344630875822
 20
30.5000000000000604
 30
0.0
  0
VERTEX
  5
108
  8
0
 10
105.5
 20
30.5000000000000604
 30
0.0
 42
0.1827076297318552
  0
VERTEX
  5
109
  8
0
 10
118.7306037618121053
 20
35.5016292852216324
 30
0.0
  0
VERTEX
  5
10A
  8
0
 10
131.4716327166568135
 20
22.760600330376981
 30
0.0
 42
-0.1837103142609859
  0
SEQEND
  5
107
  8
0
  0
POLYLINE
  5
10B
  8
0
 66
     1
 10
0.0
 20
0.0
 30
0.0
 70
     1
  0
VERTEX
  5
10C
  8
0
 10
133.2393996696231113
 20
24.5283672833433499
 30
0.0
  0
VERTEX
  5
10D
  8
0
 10
120.4983707147785026
 20
37.2693962381879871
 30
0.0
 42
0.1827076297318545
  0
VERTEX
  5
10F
  8
0
 10
125.5
 20
50.5000000000000568
 30
0.0
  0
VERTEX
  5
110
  8
0
 10
125.5
 20
56.9718655369125884
 30
0.0
  0
VERTEX
  5
111
  8
0
 10
143.4873931118760879
 20
49.5212433582371716
 30
0.0
 42
-0.1837103142609864
  0
SEQEND
  5
10E
  8
0
  0
POLYLINE
  5
112
  8
0
 66
     1
 10
0.0
 20
0.0
 30
0.0
 70
     1
  0
VERTEX
  5
113
  8
0
 10
83.0000000000000426
 20
88.0000000000000426
 30
0.0
  0
VERTEX
  5
114
  8
0
 10
83.0000000000000426
 20
68.0000000000000284
 30
0.0
  0
VERTEX
  5
116
  8
0
 10
73.0000000000000284
 20
68.0000000000000284
 30
0.0
  0
VERTEX
  5
117
  8
0
 10
73.0000000000000426
 20
88.0000000000000142
 30
0.0
  0
SEQEND
  5
115
  8
0
  0
POLYLINE
  5
118
  8
0
 66
     1
 10
0.0
 20
0.0
 30
0.0
 70
     1
  0
VERTEX
  5
119
  8
0
 10
12.51260688812396
 20
106.4787566417628994
 30
0.0
 42
-0.183710314260986
  0
VERTEX
  5
11A
  8
0
 10
22.7606003303768496
 20
131.4716327166568135
 30
0.0
  0
VERTEX
  5
11C
  8
0
 10
35.5016292852215329
 20
118.7306037618121053
 30
0.0
 42
0.1827076297318546
  0
VERTEX
  5
11D
  8
0
 10
30.5
 20
105.5000000000000995
 30
0.0
  0
VERTEX
  5
11E
  8
0
 10
30.5
 20
99.0281344630875253
 30
0.0
  0
SEQEND
  5
11B
  8
0
  0
POLYLINE
  5
11F
  8
0
 66
     1
 10
0.0
 20
0.0
 30
0.0
 70
     1
  0
VERTEX
  5
120
  8
0
 10
12.5
 20
103.7779980850721984
 30
0.0
  0
VERTEX
  5
121
  8
0
 10
30.5000000000000107
 20
96.3221539623565803
 30
0.0
  0
VERTEX
  5
123
  8
0
 10
30.5
 20
79.25
 30
0.0
  0
VERTEX
  5
124
  8
0
 10
12.5
 20
79.2499999999999858
 30
0.0
  0
SEQEND
  5
122
  8
0
  0
POLYLINE
  5
125
  8
0
 66
     1
 10
0.0
 20
0.0
 30
0.0
 70
     1
  0
VERTEX
  5
126
  8
0
 10
24.5283672833432185
 20
133.2393996696231113
 30
0.0
 42
-0.1837103142609862
  0
VERTEX
  5
127
  8
0
 10
49.5212433582370295
 20
143.4873931118760879
 30
0.0
  0
VERTEX
  5
129
  8
0
 10
56.9718655369124889
 20
125.5000000000000995
 30
0.0
  0
VERTEX
  5
12A
  8
0
 10
50.4999999999999787
 20
125.5000000000000995
 30
0.0
 42
0.1827076297318552
  0
VERTEX
  5
12B
  8
0
 10
37.2693962381879018
 20
120.4983707147785026
 30
0.0
  0
SEQEND
  5
128
  8
0
  0
POLYLINE
  5
12C
  8
0
 66
     1
 10
0.0
 20
0.0
 30
0.0
 70
     1
  0
VERTEX
  5
12D
  8
0
 10
52.2220019149277377
 20
143.5000000000001137
 30
0.0
  0
VERTEX
  5
12E
  8
0
 10
76.75
 20
143.5000000000001137
 30
0.0
  0
VERTEX
  5
130
  8
0
 10
76.7500000000000284
 20
125.5000000000000995
 30
0.0
  0
VERTEX
  5
131
  8
0
 10
59.6778460376434623
 20
125.5000000000000995
 30
0.0
  0
SEQEND
  5
12F
  8
0
  0
POLYLINE
  5
132
  8
0
 66
     1
 10
0.0
 20
0.0
 30
0.0
 70
     1
  0
VERTEX
  5
133
  8
0
 10
79.25
 20
143.5000000000001137
 30
0.0
  0
VERTEX
  5
134
  8
0
 10
103.7779980850721984
 20
143.5000000000001137
 30
0.0
  0
VERTEX
  5
136
  8
0
 10
96.3221539623565803
 20
125.5000000000000995
 30
0.0
  0
VERTEX
  5
137
  8
0
 10
79.25
 20
125.5000000000000995
 30
0.0
  0
SEQEND
  5
135
  8
0
  0
POLYLINE
  5
138
  8
0
 66
     1
 10
0.0
 20
0.0
 30
0.0
 70
     1
  0
VERTEX
  5
139
  8
0
 10
143.5
 20
103.7779980850722978
 30
0.0
  0
VERTEX
  5
13A
  8
0
 10
143.5
 20
79.2500000000000711
 30
0.0
  0
VERTEX
  5
13C
  8
0
 10
125.5
 20
79.2500000000000568
 30
0.0
  0
VERTEX
  5
13D
  8
0
 10
125.5
 20
96.322153962356623
 30
0.0
  0
SEQEND
  5
13B
  8
0
  0
POLYLINE
  5
13E
  8
0
 66
     1
 10
0.0
 20
0.0
 30
0.0
 70
     1
  0
VERTEX
  5
13F
  8
0
 10
143.5
 20
76.7500000000000995
 30
0.0
  0
VERTEX
  5
140
  8
0
 10
143.5000000000001137
 20
52.2220019149278301
 30
0.0
  0
VERTEX
  5
142
  8
0
 10
125.5
 20
59.6778460376435405
 30
0.0
  0
VERTEX
  5
143
  8
0
 10
125.5000000000000995
 20
76.7500000000000995
 30
0.0
  0
SEQEND
  5
141
  8
0
  0
POLYLINE
  5
144
  8
0
 66
     1
 10
0.0
 20
0.0
 30
0.0
 70
     1
  0
VERTEX
  5
145
  8
0
 10
-0.4999999999999983
 20
109.1627743959224972
 30
0.0
  0
VERTEX
  5
146
  8
0
 10
10.4999999999999805
 20
104.6064252098183971
 30
0.0
  0
VERTEX
  5
148
  8
0
 10
10.4999999999999893
 20
79.2499999999999858
 30
0.0
  0
VERTEX
  5
149
  8
0
 10
-0.4999999999999983
 20
79.2499999999999858
 30
0.0
  0
SEQEND
  5
147
  8
0
  0
POLYLINE
  5
14A
  8
0
 66
     1
 10
0.0
 20
0.0
 30
0.0
 70
     1
  0
VERTEX
  5
14B
  8
0
 10
4.5016292852215312
 20
149.7306037618120911
 30
0.0
  0
VERTEX
  5
14C
  8
0
 10
21.3456593287701715
 20
132.8865737182634916
 30
0.0
 42
0.179190631861257
  0
VERTEX
  5
14E
  8
0
 10
10.5403271343242295
 20
107.2957016645807045
 30
0.0
  0
VERTEX
  5
14F
  8
0
 10
-0.4999999999999983
 20
111.8687548966533996
 30
0.0
  0
VERTEX
  5
150
  8
0
 10
-0.499999999999996
 20
136.5
 30
0.0
 42
-0.1827076297318546
  0
SEQEND
  5
14D
  8
0
  0
POLYLINE
  5
151
  8
0
 66
     1
 10
0.0
 20
0.0
 30
0.0
 70
     1
  0
VERTEX
  5
152
  8
0
 10
79.2500000000000995
 20
-0.4999999999999716
 30
0.0
  0
VERTEX
  5
153
  8
0
 10
79.2500000000000853
 20
10.5000000000000409
 30
0.0
  0
VERTEX
  5
155
  8
0
 10
104.6064252098184966
 20
10.5000000000000497
 30
0.0
  0
VERTEX
  5
156
  8
0
 10
109.1627743959225967
 20
-0.4999999999999627
 30
0.0
  0
SEQEND
  5
154
  8
0
  0
POLYLINE
  5
157
  8
0
 66
     1
 10
0.0
 20
0.0
 30
0.0
 70
     1
  0
VERTEX
  5
158
  8
0
 10
46.8372256040776165
 20
-0.4999999999999761
 30
0.0
  0
VERTEX
  5
159
  8
0
 10
51.3935747901816526
 20
10.5000000000000302
 30
0.0
  0
VERTEX
  5
15B
  8
0
 10
76.7500000000000995
 20
10.5000000000000409
 30
0.0
  0
VERTEX
  5
15C
  8
0
 10
76.7500000000000995
 20
-0.4999999999999716
 30
0.0
  0
SEQEND
  5
15A
  8
0
  0
POLYLINE
  5
15D
  8
0
 66
     1
 10
0.0
 20
0.0
 30
0.0
 70
     1
  0
VERTEX
  5
15E
  8
0
 10
6.2693962381879711
 20
4.5016292852215107
 30
0.0
  0
VERTEX
  5
15F
  8
0
 10
23.1134262817366185
 20
21.3456593287701892
 30
0.0
 42
0.1791906318612568
  0
VERTEX
  5
161
  8
0
 10
48.7042983354194021
 20
10.5403271343242704
 30
0.0
  0
VERTEX
  5
162
  8
0
 10
44.1312451033466502
 20
-0.4999999999999672
 30
0.0
  0
VERTEX
  5
163
  8
0
 10
19.5000000000000107
 20
-0.4999999999999783
 30
0.0
 42
-0.1827076297318537
  0
SEQEND
  5
160
  8
0
  0
POLYLINE
  5
164
  8
0
 66
     1
 10
0.0
 20
0.0
 30
0.0
 70
     1
  0
VERTEX
  5
165
  8
0
 10
4.5016292852216022
 20
6.2693962381878743
 30
0.0
 42
-0.1827076297318558
  0
VERTEX
  5
166
  8
0
 10
-0.4999999999999983
 20
19.5000000000000213
 30
0.0
  0
VERTEX
  5
168
  8
0
 10
-0.4999999999999983
 20
44.1312451033465081
 30
0.0
  0
VERTEX
  5
169
  8
0
 10
10.5403271343242508
 20
48.7042983354193169
 30
0.0
 42
0.1791906318612569
  0
VERTEX
  5
16A
  8
0
 10
21.3456593287702496
 20
23.113426281736551
 30
0.0
  0
SEQEND
  5
167
  8
0
  0
POLYLINE
  5
16B
  8
0
 66
     1
 10
0.0
 20
0.0
 30
0.0
 70
     1
  0
VERTEX
  5
16C
  8
0
 10
44.1312451033465365
 20
156.5
 30
0.0
  0
VERTEX
  5
16D
  8
0
 10
48.7042983354193098
 20
145.4596728656757989
 30
0.0
 42
0.1791906318612569
  0
VERTEX
  5
16F
  8
0
 10
23.113426281736551
 20
134.6543406712297895
 30
0.0
  0
VERTEX
  5
170
  8
0
 10
6.2693962381879089
 20
151.4983707147783889
 30
0.0
 42
-0.1827076297318549
  0
VERTEX
  5
171
  8
0
 10
19.5
 20
156.5
 30
0.0
  0
SEQEND
  5
16E
  8
0
  0
POLYLINE
  5
172
  8
0
 66
     1
 10
0.0
 20
0.0
 30
0.0
 70
     1
  0
VERTEX
  5
173
  8
0
 10
76.7499999999999858
 20
156.5
 30
0.0
  0
VERTEX
  5
174
  8
0
 10
76.75
 20
145.5000000000001137
 30
0.0
  0
VERTEX
  5
176
  8
0
 10
51.3935747901815532
 20
145.5
 30
0.0
  0
VERTEX
  5
177
  8
0
 10
46.8372256040775312
 20
156.5
 30
0.0
  0
SEQEND
  5
175
  8
0
  0
POLYLINE
  5
178
  8
0
 66
     1
 10
0.0
 20
0.0
 30
0.0
 70
     1
  0
VERTEX
  5
179
  8
0
 10
109.1627743959223977
 20
156.5
 30
0.0
  0
VERTEX
  5
17A
  8
0
 10
104.6064252098183971
 20
145.5000000000001137
 30
0.0
  0
VERTEX
  5
17C
  8
0
 10
79.25
 20
145.5000000000001137
 30
0.0
  0
VERTEX
  5
17D
  8
0
 10
79.25
 20
156.5
 30
0.0
  0
SEQEND
  5
17B
  8
0
  0
POLYLINE
  5
17E
  8
0
 66
     1
 10
0.0
 20
0.0
 30
0.0
 70
     1
  0
VERTEX
  5
17F
  8
0
 10
156.5
 20
79.2500000000000853
 30
0.0
  0
VERTEX
  5
180
  8
0
 10
145.5
 20
79.2500000000000853
 30
0.0
  0
VERTEX
  5
182
  8
0
 10
145.5
 20
104.6064252098184966
 30
0.0
  0
VERTEX
  5
183
  8
0
 10
156.5
 20
109.1627743959224972
 30
0.0
  0
SEQEND
  5
181
  8
0
  0
POLYLINE
  5
184
  8
0
 66
     1
 10
0.0
 20
0.0
 30
0.0
 70
     1
  0
VERTEX
  5
185
  8
0
 10
156.4999999999998863
 20
46.837225604077652
 30
0.0
  0
VERTEX
  5
186
  8
0
 10
145.5
 20
51.3935747901816526
 30
0.0
  0
VERTEX
  5
188
  8
0
 10
145.5
 20
76.7500000000001137
 30
0.0
  0
VERTEX
  5
189
  8
0
 10
156.5
 20
76.7500000000001137
 30
0.0
  0
SEQEND
  5
187
  8
0
  0
POLYLINE
  5
18A
  8
0
 66
     1
 10
0.0
 20
0.0
 30
0.0
 70
     1
  0
VERTEX
  5
18B
  8
0
 10
151.4983707147785026
 20
6.269396238188027
 30
0.0
  0
VERTEX
  5
18C
  8
0
 10
134.6543406712297895
 20
23.1134262817366611
 30
0.0
 42
0.1791906318612568
  0
VERTEX
  5
18E
  8
0
 10
145.4596728656757989
 20
48.7042983354194376
 30
0.0
  0
VERTEX
  5
18F
  8
0
 10
156.4999999999998863
 20
44.1312451033466928
 30
0.0
  0
VERTEX
  5
190
  8
0
 10
156.4999999999998863
 20
19.5000000000000284
 30
0.0
 42
-0.1827076297318535
  0
SEQEND
  5
18D
  8
0
  0
POLYLINE
  5
191
  8
0
 66
     1
 10
0.0
 20
0.0
 30
0.0
 70
     1
  0
VERTEX
  5
192
  8
0
 10
149.7306037618120911
 20
4.5016292852216617
 30
0.0
 42
-0.1827076297318562
  0
VERTEX
  5
193
  8
0
 10
136.5
 20
-0.4999999999999627
 30
0.0
  0
VERTEX
  5
195
  8
0
 10
111.868754896653499
 20
-0.4999999999999583
 30
0.0
  0
VERTEX
  5
196
  8
0
 10
107.2957016645807045
 20
10.5403271343243006
 30
0.0
 42
0.1791906318612567
  0
VERTEX
  5
197
  8
0
 10
132.8865737182634916
 20
21.3456593287702887
 30
0.0
  0
SEQEND
  5
194
  8
0
  0
POLYLINE
  5
198
  8
0
 66
     1
 10
0.0
 20
0.0
 30
0.0
 70
     1
  0
VERTEX
  5
199
  8
0
 10
0.0000000000000025
 20
-13.5000000000000107
 30
0.0
  0
VERTEX
  5
19A
  8
0
 10
156.0000000000001137
 20
-13.4999999999999805
 30
0.0
 42
0.4142135623730951
  0
VERTEX
  5
19C
  8
0
 10
169.5
 20
0.0000000000000355
 30
0.0
  0
VERTEX
  5
19D
  8
0
 10
169.5
 20
156.0
 30
0.0
 42
0.4142135623730951
  0
VERTEX
  5
19E
  8
0
 10
156.0
 20
169.4999999999998863
 30
0.0
  0
VERTEX
  5
19F
  8
0
 10
0.0
 20
169.5
 30
0.0
 42
0.4142135623730951
  0
VERTEX
  5
1A0
  8
0
 10
-13.4999999999999396
 20
156.0
 30
0.0
  0
VERTEX
  5
1A1
  8
0
 10
-13.5
 20
0.0
 30
0.0
 42
0.4142135623730951
  0
SEQEND
  5
19B
  8
0
  0
POLYLINE
  5
1A2
  8
0
 66
     1
 10
0.0
 20
0.0
 30
0.0
 70
     1
  0
VERTEX
  5
1A3
  8
0
 10
120.3315536730119959
 20
118.9173401106391026
 30
0.0
  0
VERTEX
  5
1A4
  8
0
 10
130.8529576805806869
 20
129.4387441182076941
 30
0.0
 42
0.1131534534696928
  0
VERTEX
  5
1A6
  8
0
 10
137.7053770135323134
 20
125.6696229864678003
 30
0.0
 42
-0.1342378339892989
  0
VERTEX
  5
1A7
  8
0
 10
143.4873931118760026
 20
106.4787566417629989
 30
0.0
  0
VERTEX
  5
1A8
  8
0
 10
125.5
 20
99.0281344630875822
 30
0.0
  0
VERTEX
  5
1A9
  8
0
 10
125.5
 20
105.5000000000000995
 30
0.0
 42
0.185943952416751
  0
SEQEND
  5
1A5
  8
0
  0
POLYLINE
  5
1AA
  8
0
 66
     1
 10
0.0
 20
0.0
 30
0.0
 70
     1
  0
VERTEX
  5
1AB
  8
0
 10
142.8603541824762999
 20
125.0037105401410997
 30
0.0
 42
0.2306393425820434
  0
VERTEX
  5
1AC
  8
0
 10
156.5
 20
132.0
 30
0.0
  0
VERTEX
  5
1AE
  8
0
 10
156.5
 20
111.868754896653499
 30
0.0
  0
VERTEX
  5
1AF
  8
0
 10
145.4596728656757989
 20
107.2957016645807045
 30
0.0
 42
0.1013028911827244
  0
VERTEX
  5
1B0
  8
0
 10
141.5397510205604021
 20
122.8532805652423008
 30
0.0
 42
-0.5459599910664201
  0
SEQEND
  5
1AD
  8
0
  0
CIRCLE
  5
1B1
  8
0
 10
142.5
 20
142.5
 30
0.0
 40
12.5
  0
ENDSEC
  0
EOF
